<svg width="265" height="78" viewBox="0 0 265 78" fill="none" xmlns="http://www.w3.org/2000/svg">
<path d="M38.5225 0.00546394C59.9219 -0.336016 75.7237 17.0482 76.9245 35.3051C77.661 46.5092 74.4136 56.3742 66.8497 64.621C59.2881 72.8657 49.653 76.988 38.5203 77.0192C28.113 77.0482 18.9309 73.3634 11.5077 66.0048C3.16707 57.7401 -0.546799 47.5738 0.0647398 35.8318C1.04454 17.0661 17.1744 -0.353871 38.5225 0.00546394ZM5.99488 22.6614L5.6534 22.6904C6.06407 24.7728 6.21807 26.9489 6.93451 28.9197C9.03919 34.7181 12.9405 38.9119 18.7836 41.1371C23.7362 43.023 28.6531 42.7998 33.5097 40.7599C33.7552 40.6572 34.0052 40.4072 34.1123 40.1639C34.7551 38.6954 35.9759 38.0704 37.4378 37.7156C37.9891 37.5816 38.6252 37.4209 39.0113 37.0505C43.8054 32.4483 45.9748 26.8775 45.178 20.2019C44.6513 15.7894 42.752 12.0309 39.7478 8.85716C37.2191 6.18781 34.0632 4.40453 30.5011 3.49838C29.0437 3.12788 27.5282 2.61232 25.9503 3.21939C19.1229 5.84856 13.3066 9.87267 8.90304 15.7626C7.38982 17.787 5.36103 19.6729 5.99935 22.6614H5.99488ZM47.3831 38.7266C47.6777 39.5234 47.9009 40.126 48.1264 40.7264C48.2045 40.9317 48.2469 41.175 48.3853 41.329C48.8428 41.8446 52.8133 41.4629 53.2776 40.9563C54.5654 39.5457 54.9961 37.9053 54.7506 36.0506C54.6145 35.015 54.918 34.3208 55.9648 33.8588C56.6165 33.5709 57.3776 33.0197 57.6208 32.4014C59.3059 28.1385 59.663 23.6613 59.1653 19.1574C58.7301 15.2203 57.4468 11.5086 55.6278 7.95994C54.2105 5.19239 52.3647 3.13012 49.1463 2.59669C48.171 2.436 47.2314 2.0722 46.2605 1.88472C45.0441 1.64814 43.8099 1.4986 42.5823 1.31112C53.7976 10.7877 55.9581 26.9511 47.3809 38.7244L47.3831 38.7266ZM5.16685 21.6883C3.61792 24.6121 2.62919 27.7457 1.89936 30.9819C1.54895 32.5309 1.60252 33.8566 2.44617 35.3542C5.765 41.2442 10.5703 45.2817 16.8821 47.5783C20.9062 49.0424 25.062 49.5357 29.2825 48.8527C31.3314 48.5202 33.32 47.7993 35.3242 47.219C35.563 47.1498 35.9469 46.757 35.909 46.6788C35.3889 45.5607 36.6053 43.9292 34.851 43.148C34.5341 43.0074 34.3556 42.4382 34.2194 42.0298C33.9873 41.329 33.6659 41.3379 32.9874 41.5276C31.0167 42.0789 29.0236 42.7128 27.0037 42.8779C23.1113 43.1993 19.3751 42.3891 15.9268 40.472C10.9162 37.6865 7.53712 33.5732 6.11317 28.0046C5.59091 25.9624 5.47262 23.8175 5.16685 21.6906V21.6883ZM46.9345 38.1441C46.9702 38.1441 47.0238 38.1575 47.0327 38.1441C47.5059 37.4053 47.9991 36.6755 48.4433 35.9189C51.8603 30.1048 52.8959 23.8577 51.5144 17.2893C50.3382 11.6939 47.5371 6.96451 43.3657 3.01406C41.9061 1.63252 40.2835 0.940628 38.3462 1.00089C36.6946 1.05222 35.0363 1.1973 33.4003 1.42941C31.8581 1.64814 30.3404 2.03649 28.8115 2.35119C36.7593 4.10992 42.3145 8.59826 44.8477 16.1956C47.3519 23.7015 45.6445 30.6271 40.5803 36.7536C41.2343 36.1822 41.6762 35.4904 42.252 34.9391C42.6962 34.515 43.2876 34.0374 43.8523 33.9838C46.3565 33.7517 47.7447 35.6845 46.9345 38.1463V38.1441ZM1.47753 34.8632C1.47753 37.8539 1.44405 40.7375 1.49315 43.6212C1.51324 44.7929 1.96185 45.833 2.98852 46.5315C5.08427 47.9555 7.13315 49.4531 9.29139 50.7744C10.568 51.5555 11.963 52.3166 13.4048 52.6157C15.3733 53.0241 17.4333 53.1022 19.4554 53.1134C22.9372 53.1335 26.4212 53.0286 29.9029 52.9036C32.2978 52.8188 34.6904 52.6246 37.0829 52.4572C37.7726 52.4081 38.123 52.109 38.2815 51.3078C38.5158 50.1204 38.2614 49.25 37.5293 48.3014C36.9959 47.6096 36.6433 47.2636 35.7527 47.6363C30.8984 49.6674 25.8677 50.1249 20.7075 49.1763C15.4715 48.2144 10.9117 45.9423 7.05503 42.2285C4.80975 40.0657 2.98629 37.6062 1.4753 34.8632H1.47753ZM54.5631 4.88439C59.9509 13.4035 61.2075 22.4896 58.4533 32.1939C58.7368 32.1336 58.8595 32.1381 58.9488 32.0845C61.1562 30.761 63.3702 29.4464 65.553 28.0849C65.8253 27.9153 66.0351 27.5091 66.1043 27.1765C66.2493 26.4958 66.323 25.7928 66.352 25.0942C66.5283 20.8201 66.1511 16.6108 64.7584 12.5398C64.5643 11.9751 64.2049 11.4038 63.7719 10.9931C61.0758 8.44203 58.0047 6.43109 54.5631 4.88215V4.88439ZM49.0861 44.5429C49.095 44.4269 49.1039 44.3108 49.1129 44.197C48.6553 44.1479 48.1978 44.0898 47.738 44.0519C47.2671 44.0117 46.7962 43.9916 46.3252 43.9649V43.6814C46.535 43.6078 46.7493 43.5341 46.9658 43.4582C44.8075 42.0566 44.7383 41.7865 45.5865 38.1218C45.0486 38.0325 44.5129 37.941 43.975 37.8517C43.9862 37.7714 43.9974 37.6888 44.0063 37.6084C44.8098 37.5303 45.6132 37.4522 46.4167 37.3741C46.4078 37.2067 46.3966 37.0393 46.3877 36.8719H42.7966V36.4166H46.169C46.1757 36.2425 46.1846 36.0684 46.1913 35.8966C45.399 35.8609 44.5732 35.6711 43.8255 35.8363C43.0934 35.9992 42.4283 36.5036 41.7543 36.8942C41.0669 37.2915 40.4062 37.7334 39.7344 38.1552C40.4955 38.1887 41.2477 38.2244 41.9998 38.2579C41.9931 38.4186 41.9887 38.5793 41.982 38.74H36.6723C36.6723 38.894 36.6767 39.0458 36.679 39.1998H41.0245C41.0178 39.3292 41.0089 39.4587 41.0022 39.5881C39.3796 39.5881 37.757 39.5747 36.1366 39.5926C35.0832 39.6037 34.4761 40.3894 34.8912 41.3602C35.1769 42.0276 35.7237 42.5945 36.2013 43.1636C36.7102 43.7707 37.411 44.2572 37.7726 44.9335C38.0226 45.4 37.8574 46.0986 37.8463 46.6922C37.815 48.3148 39.8661 50.2008 41.6873 48.9732C43.4996 47.7502 45.5307 47.3908 47.7135 47.5381C49.1553 47.6341 49.8047 46.6655 49.4365 45.2326C48.7848 45.179 48.1241 45.1232 47.4657 45.0696L47.4702 44.7817C48.0081 44.7036 48.5482 44.6255 49.0861 44.5496V44.5429ZM70.7198 46.3932C71.6751 46.4757 71.9474 46.0294 71.9451 45.2705C71.9384 42.2195 71.9719 39.1685 71.9072 36.1198C71.8983 35.6555 71.5657 35.0172 71.1818 34.7695C69.0816 33.4147 66.9144 32.1626 64.7785 30.8592C64.1648 30.4842 63.6246 30.3838 62.9506 30.8078C60.7388 32.1961 58.4801 33.5107 56.2683 34.8989C55.9916 35.073 55.7304 35.5194 55.7282 35.843C55.6925 40.0457 55.6925 44.2505 55.7304 48.4532C55.7327 48.7478 56.1009 49.038 56.2996 49.3303C56.5272 49.029 56.9312 48.7389 56.949 48.4264C57.0272 47.2033 57.0272 45.9713 56.9669 44.746C56.9223 43.8131 57.2771 43.5163 58.1944 43.5274C61.7275 43.5676 65.2606 43.543 68.7937 43.543C70.0183 43.543 70.6395 44.1732 70.6573 45.4334C70.6618 45.7281 70.6908 46.0204 70.7154 46.3954L70.7198 46.3932ZM62.5578 67.0806C62.4931 66.9132 62.4283 66.7458 62.3658 66.5784C61.703 66.5784 60.9955 66.4289 60.3839 66.603C56.8508 67.6096 53.3758 68.8304 49.8159 69.7232C44.0532 71.1694 38.2413 72.4238 32.4473 73.7428C31.3358 73.9972 30.2065 74.1803 29.0861 74.3967C31.5903 75.0328 33.9739 75.8408 36.641 75.294C44.4638 73.6892 52.1371 71.5756 59.6764 68.971C60.7299 68.6072 61.6025 67.7256 62.56 67.0828L62.5578 67.0806ZM23.9706 72.5755L23.9371 72.8991C25.1847 73.2875 26.5015 74.1512 27.6666 73.9794C32.1996 73.312 36.708 72.4282 41.1785 71.4105C45.2204 70.4887 49.2066 69.3125 53.2017 68.1965C55.2416 67.6252 57.2503 66.94 59.2724 66.3039L59.2546 65.9892C57.69 65.9312 56.0496 65.5384 54.5788 65.8798C50.1127 66.9154 45.7427 68.3662 41.2767 69.404C36.9178 70.4173 32.4897 71.1315 28.0862 71.9484C26.7225 72.2028 25.3432 72.368 23.9706 72.5755ZM65.7673 12.8947C66.8944 17.6843 67.1823 22.4181 66.6645 27.0225C69.1798 26.9935 70.6573 29.0469 72.9071 29.7789C73.0343 28.4219 73.2307 27.1208 73.2508 25.8173C73.262 25.1076 73.128 24.3108 72.7955 23.697C71.4318 21.1772 70.0324 18.673 68.5103 16.2492C67.7469 15.035 66.6913 14.0061 65.7673 12.8947ZM48.1799 42.494C48.1665 42.5744 48.1531 42.6525 48.1375 42.7329C48.4009 42.8467 48.6732 42.9427 48.9231 43.0788C49.9632 43.6345 50.5971 45.1612 50.3292 46.4333C50.1261 47.3997 49.2334 48.3371 48.2558 48.2546C45.9503 48.0604 43.8701 48.5693 41.9329 49.7968C41.7231 49.9307 41.453 50.02 41.2053 50.0401C39.9866 50.1383 40.2143 51.0132 40.1183 51.9193C41.1584 51.7966 42.069 51.7185 42.9729 51.5801C46.3832 51.0623 49.7936 50.54 53.1972 49.9821C54.0029 49.8504 54.7082 49.4442 54.735 48.5045C54.7796 46.9444 54.7752 45.3821 54.7395 43.822C54.7216 43.0609 54.2529 42.5364 53.4985 42.5119C51.7286 42.4583 49.9543 42.494 48.1822 42.494H48.1799ZM58.5605 59.1239C45.8208 57.5504 33.128 57.9834 20.4062 60.2622C20.8057 60.8112 21.2945 61.3736 21.7498 61.3446C23.6536 61.2308 25.5418 60.896 27.4412 60.7219C30.9609 60.3983 34.4828 60.0122 38.0114 59.8716C41.6851 59.7243 45.37 59.8336 49.0504 59.847C49.5235 59.847 50.0012 60.0167 50.4721 59.9988C52.6839 59.9095 54.9448 60.7063 57.1097 59.6261C57.5628 59.4006 58.0739 59.2891 58.5582 59.1261L58.5605 59.1239ZM65.053 29.7231C65.1981 29.8794 65.2762 30.0133 65.3923 30.0825C67.2805 31.2207 69.1151 32.4706 71.0836 33.4459C72.5299 34.1624 73.0031 35.0819 72.9272 36.6554C72.7955 39.3605 72.8714 42.0789 72.9138 44.7907C72.9205 45.1701 73.1548 45.7348 73.4405 45.8642C73.7463 46.0026 74.302 45.8218 74.6323 45.6031C74.9314 45.4067 75.1926 45.0005 75.2729 44.6411C76.0273 41.2643 75.9157 37.8405 75.6612 34.428C75.6032 33.6379 75.563 32.6871 74.5654 32.1648C73.0053 31.348 71.405 30.5222 70.048 29.4218C68.3875 28.0738 66.9323 28.0916 65.3611 29.3884C65.2762 29.4575 65.2093 29.5491 65.0508 29.7209L65.053 29.7231ZM53.253 65.6633C53.2463 65.5741 53.2419 65.4848 53.2352 65.3955C51.8335 65.3085 50.3694 64.9201 49.0392 65.1902C44.6245 66.0852 40.2768 67.3216 35.8621 68.2233C31.9853 69.0157 28.0549 69.5424 24.1469 70.1695C22.7988 70.386 21.4418 70.5512 20.0871 70.7409C20.0647 70.8637 20.0424 70.9864 20.0201 71.1092C21.1561 71.4462 22.3301 72.1582 23.4215 72.0466C26.8475 71.7006 30.2645 71.1627 33.6414 70.4775C38.1297 69.5692 42.5823 68.4845 47.0372 67.4109C49.1285 66.9065 51.1841 66.2503 53.2553 65.6633H53.253ZM21.511 58.7735L21.5869 59.1105C21.8279 59.1284 22.0735 59.1864 22.3123 59.1618C24.321 58.9431 26.323 58.6664 28.3362 58.4923C32.117 58.1664 35.9 57.6932 39.6853 57.6575C44.9013 57.6084 50.1217 57.8874 55.3376 58.0727C56.5451 58.1151 57.7436 58.3717 58.951 58.4789C60.2299 58.5905 61.482 58.5101 62.8055 57.5259C61.2834 57.4076 60.0179 57.296 58.7502 57.2134C54.1502 56.9121 49.5525 56.5527 44.9481 56.3563C42.7006 56.2604 40.4352 56.4188 38.1833 56.5617C34.1391 56.8183 30.0882 57.0594 26.0596 57.4924C24.5174 57.6575 23.0265 58.3316 21.5132 58.7735H21.511ZM22.3324 61.9495C23.5755 63.0498 24.5397 63.1726 26.9189 62.9761C31.3291 62.6123 35.7438 62.3222 40.163 62.0923C42.3502 61.9785 44.5509 62.0075 46.7404 62.0923C48.3987 62.157 49.9632 61.8557 51.5166 61.3536C52.0991 61.1661 52.6839 60.9808 53.2686 60.7956C44.7629 59.9921 24.7629 60.8491 22.3324 61.9472V61.9495ZM17.4378 68.9621C17.3909 69.0714 17.3441 69.183 17.2972 69.2924C18.0136 69.5714 18.7524 70.1294 19.4443 70.078C22.2676 69.8682 25.0932 69.5736 27.8853 69.1183C31.6885 68.4978 35.4693 67.7435 39.2457 66.969C41.6784 66.4713 44.0799 65.833 46.4971 65.2571C45.0352 64.9558 43.5666 64.6501 42.1873 64.8755C38.7859 65.429 35.4336 66.2816 32.0433 66.911C29.3717 67.4065 26.6779 67.7769 23.9862 68.1541C21.8101 68.4599 19.6228 68.6943 17.4423 68.9621H17.4378ZM4.92804 54.3276L4.71154 54.6356C5.16016 55.0261 5.56636 55.6801 6.0663 55.7627C8.09286 56.0997 10.1462 56.2849 12.1951 56.4791C13.5164 56.6063 14.8443 56.68 16.1723 56.7313C18.2792 56.8139 20.3973 57.0281 22.4908 56.8853C27.4077 56.5505 32.3134 56.0394 37.2236 55.5863C37.5717 55.5551 37.9087 55.4123 38.2502 55.3207L38.1989 54.9235C27.0841 55.8765 15.9893 55.8519 4.92804 54.3253V54.3276ZM38.056 54.5039L38.3395 54.1133C38.0471 53.8834 37.7815 53.5263 37.4534 53.4549C36.958 53.3455 36.4178 53.4058 35.9 53.4482C33.3668 53.6535 30.8359 54.0597 28.3049 54.053C23.4572 54.0396 18.6073 53.8432 13.7641 53.6267C11.6751 53.533 9.59493 53.2161 7.51257 52.9817C6.39886 52.8567 5.28737 52.6893 4.14464 52.5353C4.11563 53.35 4.37899 53.7361 5.13784 53.8164C7.65988 54.0865 10.1685 54.4949 12.695 54.6713C16.1969 54.9145 19.7099 55.044 23.2206 55.1266C24.9548 55.1667 26.6912 54.9994 28.4277 54.9235C31.6371 54.7829 34.8466 54.6423 38.056 54.5016V54.5039ZM74.3221 48.5358C72.8736 48.8282 71.4876 49.1183 70.0949 49.3861C63.8657 50.5891 57.6342 51.7787 51.4095 53.004C51.1818 53.0487 50.8158 53.4951 50.8627 53.6044C50.9787 53.8745 51.2644 54.1423 51.5456 54.2539C51.7956 54.3521 52.1326 54.2651 52.4228 54.2093C54.976 53.7093 57.5249 53.1915 60.0782 52.6916C64.3612 51.8524 68.6442 51.0177 72.9294 50.1896C73.7463 50.0312 74.3958 49.7343 74.3199 48.5358H74.3221ZM73.7083 50.5534C66.3096 52.0086 59.0359 53.4415 51.7621 54.8721C51.7331 54.9949 51.7063 55.1154 51.6773 55.2382C52.2888 55.4323 52.9093 55.8073 53.5119 55.7805C54.7506 55.7225 55.9893 55.4993 57.2102 55.256C62.1717 54.274 67.1175 53.2049 72.0947 52.3032C73.0856 52.1247 73.5566 51.8144 73.7083 50.5534ZM50.6886 51.9885C50.7578 52.1492 50.827 52.3077 50.8961 52.4684C51.6148 52.3813 52.3424 52.3345 53.0499 52.1983C59.8505 50.8793 66.6511 49.5558 73.4427 48.1854C73.9271 48.0872 74.34 47.6274 74.7863 47.3373C74.2574 47.2301 73.7016 46.9601 73.2062 47.0426C71.0368 47.402 68.8852 47.8618 66.7292 48.2903C61.8748 49.2545 57.0205 50.2075 52.1728 51.2096C51.6461 51.319 51.1818 51.7229 50.6886 51.9908V51.9885ZM26.073 63.2685C26.0507 63.4515 26.0284 63.6346 26.0061 63.8176C27.1309 64.0541 28.2446 64.3956 29.3807 64.4938C30.3582 64.5764 31.3581 64.3622 32.3513 64.3108C35.4447 64.1501 38.5493 64.0988 41.6315 63.8198C43.2608 63.6725 44.8544 63.1413 46.4636 62.782C46.4457 62.6414 46.4279 62.4985 46.41 62.3579C39.6318 62.6614 32.8513 62.9672 26.073 63.2708V63.2685ZM54.6636 61.4964C56.2505 61.4964 57.7257 61.7955 59.0225 61.4384C62.5957 60.4541 66.0953 59.202 69.6217 58.0437C70.6484 57.7066 70.9095 57.3562 71.1059 56.1666C65.6713 57.9276 60.2455 59.6863 54.6636 61.4942V61.4964ZM57.3686 70.549C50.9185 72.2898 44.4036 74.0463 37.8351 75.8185C42.8636 76.4122 53.9449 73.3924 57.3686 70.549ZM56.8196 55.8943L56.8374 56.2559C58.489 56.2559 60.1719 56.4635 61.7856 56.2113C65.0441 55.7002 68.2536 54.8811 71.5055 54.3209C72.521 54.1468 72.6593 53.5843 72.8825 52.667C67.4256 53.7629 62.1226 54.8297 56.8196 55.8943ZM61.8905 44.4202C57.9579 43.7104 57.6655 43.9492 57.7146 47.6944C57.7168 47.9175 57.6923 48.1474 57.7458 48.3572C57.786 48.5179 57.9512 48.7947 58.0181 48.7813C59.2479 48.5693 60.4754 48.3349 61.694 48.0582C61.799 48.0336 61.8793 47.6743 61.8838 47.4689C61.9038 46.4713 61.8927 45.4714 61.8927 44.4179L61.8905 44.4202ZM2.10692 46.8775C2.39484 47.864 2.66267 48.9598 3.03986 50.0155C3.37241 50.9395 4.00627 51.5444 5.09097 51.6046C5.74045 51.6404 6.37877 51.8792 7.02825 51.9908C7.67996 52.1001 8.34061 52.1671 8.99678 52.2474C9.60386 52.3211 10.2109 52.3903 10.6417 52.4394C7.86744 50.6315 5.02401 48.7791 2.10692 46.8775ZM17.6677 57.7044L17.6766 57.4991C13.7619 57.1487 9.8449 56.7983 5.93016 56.4479L5.76277 56.6733C6.20022 57.0527 6.59303 57.6776 7.08405 57.7691C8.59727 58.0481 10.1484 58.2713 11.6795 58.2401C13.6771 58.1999 15.6701 57.8963 17.6655 57.7066L17.6677 57.7044ZM65.7539 44.2706C65.7539 45.1411 65.6735 45.8821 65.794 46.5918C65.8409 46.8753 66.3409 47.3038 66.6087 47.2859C67.4724 47.2257 68.3362 47.0248 69.1821 46.8105C70.2065 46.5516 69.9119 45.6879 69.923 44.9915C69.9364 44.2037 69.3494 44.2729 68.8294 44.2729C67.8719 44.2706 66.9145 44.2729 65.7561 44.2729L65.7539 44.2706ZM69.7713 58.6106C66.7716 59.5859 63.9192 60.5144 61.0669 61.4428C62.5578 61.6214 64.0085 61.7263 65.4392 61.5968C67.3207 61.4272 68.9633 60.7398 69.7713 58.6128V58.6106ZM23.8166 67.2658C20.7812 65.1656 17.8909 67.0739 14.7752 67.0627C14.9872 67.3551 15.0564 67.4734 15.1457 67.5738C15.9558 68.4666 16.9245 67.9667 17.844 67.8751C19.8349 67.6765 21.8257 67.4712 23.8166 67.2681V67.2658ZM62.6872 44.3376V48.076C63.551 47.7167 64.7116 48.2501 64.9839 47.0226C65.1691 46.1878 65.0196 45.2772 65.0196 44.3354H62.6872V44.3376ZM13.1035 65.5049C13.0655 65.6142 13.0254 65.7214 12.9874 65.8307C13.474 66.1187 13.9895 66.6945 14.4404 66.6454C16.2772 66.449 18.094 66.0606 20.1339 65.7035C17.6677 63.851 15.3733 65.3933 13.1012 65.5026L13.1035 65.5049ZM16.2058 58.7824C13.6436 59.3136 11.1126 59.8359 8.58388 60.3581C8.56603 60.5188 8.5504 60.6818 8.53255 60.8425C8.90751 61.021 9.36281 61.4361 9.64626 61.3402C11.8581 60.6014 14.5185 61.0456 16.2036 58.7824H16.2058ZM46.6801 52.5197C46.5975 52.4037 46.5172 52.2898 46.4346 52.1738C44.6178 52.3746 42.7966 52.542 40.991 52.8032C40.6696 52.85 40.4018 53.2853 40.1116 53.5397C40.4352 53.7026 40.7767 54.0329 41.0803 54.0017C42.4998 53.8566 43.9215 53.6669 45.3164 53.3701C45.8097 53.2652 46.2293 52.8121 46.6823 52.5197H46.6801ZM11.309 63.7127L11.1773 64.197C11.8447 64.4537 12.5232 64.9491 13.1749 64.9157C14.4203 64.8509 15.6523 64.4849 16.958 64.2305C15.1501 62.0923 13.1838 63.5587 11.309 63.7104V63.7127ZM14.1904 60.9384C12.6772 61.262 11.1818 61.5812 9.68421 61.9026C9.65965 62.0187 9.6351 62.1325 9.60832 62.2485C10.0993 62.5588 10.6082 63.1502 11.0791 63.1212C12.2598 63.0476 13.4226 62.6927 14.6323 62.4427C14.4783 61.9227 14.3556 61.5098 14.1882 60.9384H14.1904ZM46.381 55.3877C46.4591 55.2694 46.5395 55.1489 46.6176 55.0306C46.3051 54.6534 45.9614 53.928 45.6824 53.9526C43.9148 54.1021 42.1605 54.4168 40.404 54.678C40.3973 54.7985 40.3906 54.9168 40.3839 55.0373C42.3257 55.7783 44.3924 55.1667 46.381 55.3899V55.3877ZM63.4572 56.4412C66.1958 57.3094 68.4232 55.8095 70.8069 54.9949C68.3563 55.477 65.9079 55.9591 63.4572 56.4412ZM74.0364 26.8485L73.8623 26.8909C73.782 27.2056 73.6972 27.5203 73.6258 27.835C73.1236 30.0021 73.3512 30.5422 75.1479 31.0824C74.7618 29.6071 74.4002 28.2278 74.0387 26.8485H74.0364ZM38.2101 64.5162C36.1723 64.6367 34.1324 64.7572 32.0947 64.8777C34.2127 65.8865 36.2036 65.092 38.2101 64.5162ZM6.96576 58.2825C7.78486 59.6082 8.42765 59.664 10.5993 58.7244C9.31371 58.5681 8.24687 58.4387 6.96576 58.2825ZM39.4644 55.3118V50.1695C38.7836 51.2096 38.7613 53.4214 39.4644 55.3118Z" fill="#AB8E5C"/>
<path d="M12.7914 22.5703C12.6887 15.7586 18.5697 9.54496 25.9171 9.80163C32.7958 10.0427 38.4983 15.3256 38.4872 22.7087C38.476 29.9222 32.8784 35.5287 25.5199 35.5175C18.4537 35.5064 12.8092 29.9802 12.7936 22.5703H12.7914ZM25.723 10.3351C18.8532 10.2904 13.394 15.917 13.3159 22.4431C13.231 29.4802 18.9068 35.0644 25.5399 34.9819C32.7579 34.8904 37.8421 29.6253 37.9448 22.7288C38.0475 15.8992 32.5883 10.4466 25.723 10.3373V10.3351Z" fill="#AB8E5C"/>
<path d="M38.6562 42.8218H42.5353L42.542 43.0427H38.6607C38.6607 42.9691 38.6562 42.8954 38.6562 42.8218Z" fill="#AB8E5C"/>
<path d="M63.9374 36.8427C65.8323 36.8427 67.7272 36.8627 69.6198 36.8315C70.3854 36.8181 70.6956 37.1038 70.6711 37.876C70.6331 39.1013 70.642 40.3289 70.6644 41.5542C70.6755 42.2193 70.3921 42.4849 69.7314 42.4827C65.7944 42.4715 61.8573 42.4715 57.9202 42.4849C57.2596 42.4871 56.9739 42.2215 56.9851 41.5564C57.0052 40.3311 57.0163 39.1036 56.9806 37.8783C56.9583 37.106 57.2685 36.8226 58.0318 36.8337C60.0004 36.865 61.9689 36.8449 63.9374 36.8449V36.8404V36.8427ZM59.8263 37.5703C57.4783 37.5881 57.7171 37.289 57.7194 39.7196C57.7216 41.9649 57.5006 41.7506 59.7303 41.7506C62.143 41.7506 61.8975 42.0028 61.8952 39.6526C61.8952 37.3426 62.1363 37.5837 59.8263 37.5703ZM67.9013 41.7528C70.1666 41.7439 69.9211 41.9626 69.9345 39.7464C69.9345 39.7084 69.9345 39.6727 69.9345 39.6348C69.9234 37.3359 70.1666 37.5747 67.8432 37.5725C65.4998 37.5725 65.7564 37.3471 65.7564 39.6325C65.7564 42.005 65.4908 41.7327 67.899 41.7528H67.9013ZM65.0244 39.6861C65.0244 39.3915 64.9931 39.0924 65.0311 38.8023C65.1605 37.818 64.732 37.5212 63.7723 37.5412C62.9197 37.5591 62.5425 37.8091 62.6206 38.6929C62.6719 39.2777 62.6697 39.8758 62.6206 40.4628C62.5403 41.3756 62.8036 41.7863 63.8303 41.7863C64.8592 41.7863 65.1382 41.3734 65.0311 40.4606C65.002 40.2061 65.0266 39.945 65.0266 39.6861H65.0244Z" fill="#AB8E5C"/>
<path d="M68.7931 35.9213H58.7139C59.2294 35.4236 59.4772 35.0932 59.803 34.8857C60.8922 34.1983 61.9925 33.5265 63.1241 32.9127C63.4321 32.7453 63.9566 32.6426 64.2266 32.7922C65.6439 33.5733 67.0121 34.4415 68.3869 35.2963C68.5141 35.3745 68.5699 35.5686 68.7909 35.9213H68.7931ZM66.617 35.2763C63.8361 33.2118 63.5995 33.214 61.2225 35.1848C61.3386 35.2205 61.4301 35.2718 61.5238 35.2718C63.1442 35.2763 64.7645 35.2763 66.617 35.2763Z" fill="#AB8E5C"/>
<path d="M25.591 27.5254C22.5243 27.7017 20.6964 25.2488 20.6183 22.6241C20.5357 19.8833 22.906 17.589 25.7204 17.6537C28.1867 17.7095 30.6261 19.4682 30.5882 22.7089C30.5525 25.8537 28.1867 27.7776 25.591 27.5254Z" fill="#AB8E5C"/>
<path d="M181.953 45.6328V21.6753C184.716 21.8826 187.423 21.8866 190.039 22.381C191.071 22.5763 192.212 23.6927 192.758 24.6854C194.181 27.2729 193.352 31.1203 191.115 33.2254C194.879 35.2348 193.679 38.7394 193.539 41.8093C193.447 43.8586 191.534 45.4972 189.56 45.6009C187.064 45.7324 184.561 45.6328 181.953 45.6328ZM184.696 34.0906V43.6313C186.897 43.5875 189.588 44.3729 190.517 42.1562C191.295 40.2983 191.199 37.639 190.489 35.7013C189.592 33.2414 186.897 34.2341 184.696 34.0906ZM184.64 32.153C186.654 32.0214 189.138 33.1098 190.118 30.9808C190.848 29.398 190.86 26.9141 190.106 25.3552C189.154 23.3937 186.718 23.9239 184.64 24.1273V32.149V32.153Z" fill="#AB8E5C"/>
<path d="M174.956 21.9183V45.4252C173.445 45.9036 172.564 45.6844 171.906 44.0417C169.873 38.9783 167.636 33.9947 165.471 28.9871C165.348 28.7 165.144 28.4449 164.714 27.7511V45.481H162.405V22.0219C164.012 21.4917 164.817 21.99 165.443 23.5449C167.536 28.724 169.801 33.8312 172.006 38.9664C172.098 39.1817 172.245 39.373 172.755 39.5166V21.9183H174.956Z" fill="#AB8E5C"/>
<path d="M124.833 33.7391C124.833 31.7456 124.945 29.7482 124.809 27.7627C124.45 22.5079 127.999 21.1125 131.966 21.4195C135.997 21.7344 137.476 23.5166 137.48 27.6231C137.484 31.941 137.492 36.2548 137.48 40.5727C137.468 44.1171 135.717 45.955 132.201 46.0946C131.14 46.1344 130.068 46.1464 129.019 46.0188C126.575 45.7238 124.877 43.7901 124.841 41.3103C124.805 38.7865 124.833 36.2628 124.833 33.7391ZM134.8 33.9304C134.8 31.4067 134.828 28.887 134.793 26.3632C134.765 24.4695 133.588 23.4568 131.384 23.3332C129.295 23.2136 127.508 24.3419 127.477 26.0921C127.389 31.2672 127.397 36.4422 127.477 41.6173C127.5 43.216 129.199 44.2247 131.308 44.1569C133.688 44.0812 134.761 43.232 134.793 41.2983C134.832 38.8423 134.8 36.3864 134.8 33.9304Z" fill="#AB8E5C"/>
<path d="M102.092 33.3931C104.301 34.1706 104.576 35.9767 104.424 38.018C104.361 38.8752 104.42 39.7443 104.412 40.6095C104.381 43.9744 102.766 45.6171 99.4487 45.641C97.3914 45.6569 95.3342 45.641 93.1055 45.641V21.8988C96.2153 21.9148 99.4646 21.2769 102.395 23.1348C103.049 23.5494 103.767 24.3827 103.846 25.0923C104.066 26.9901 104.121 28.9477 103.894 30.8415C103.794 31.6628 102.838 32.3805 102.092 33.3891V33.3931ZM95.2465 34.1028C95.2465 37.0691 95.2345 39.7084 95.2584 42.3518C95.2584 42.7186 95.3342 43.209 95.5734 43.4322C96.9329 44.6881 101.653 43.2129 101.948 41.3351C102.192 39.7961 102.08 38.1735 101.913 36.6106C101.737 35.0039 100.509 34.2782 99.03 34.1267C97.8659 34.0071 96.6817 34.1028 95.2504 34.1028H95.2465ZM95.3501 32.3206C97.5469 31.8103 100.214 33.2935 101.211 30.6422C101.789 29.1032 101.757 26.8147 100.988 25.4193C99.8793 23.4138 97.4871 23.8684 95.3461 24.1833V32.3167L95.3501 32.3206Z" fill="#AB8E5C"/>
<path d="M152.43 37.0373C153.921 39.9716 155.305 42.6987 156.708 45.4656C155.046 45.8364 153.909 45.8364 153.311 43.9984C152.789 42.3997 151.673 41.0043 151.015 39.4334C150.182 37.4479 148.894 36.7622 146.689 37.5356V45.4935H144.393V21.6836C147.072 21.8829 149.639 21.9268 152.155 22.3056C154.308 22.6285 155.365 24.1316 155.408 26.3802C155.444 28.1703 155.345 29.9644 155.432 31.7506C155.552 34.1507 154.882 36.0525 152.426 37.0413L152.43 37.0373ZM146.793 23.988V34.992C147.857 34.992 148.774 34.992 149.695 34.992C152.343 34.98 153.06 34.2664 153.104 31.5552C153.128 30.2316 153.128 28.9039 153.104 27.5803C153.056 25.224 151.924 24.0837 149.56 24C148.702 23.9681 147.845 23.996 146.793 23.996V23.988Z" fill="#AB8E5C"/>
<path d="M252.909 45.5563H250.517C252.223 37.9891 253.894 30.5096 255.644 23.05C255.759 22.5636 256.481 22.0134 257.015 21.8859C257.825 21.6905 258.718 21.834 259.671 21.834C261.433 29.7521 263.175 37.5904 264.913 45.4048C262.585 46.1463 262.242 44.8665 261.959 43.3674C261.345 40.0782 261.317 40.0822 258.032 40.0822C255.515 40.0822 253.945 41.3208 253.323 43.798C253.184 44.3602 253.056 44.9303 252.909 45.5603V45.5563ZM257.868 25.3226H257.577C256.613 29.5208 255.644 33.7191 254.667 37.9691H260.855C259.826 33.6114 258.849 29.469 257.868 25.3226Z" fill="#AB8E5C"/>
<path d="M198.535 45.4327C199.101 42.602 199.612 39.8311 200.218 37.0801C201.151 32.85 202.307 28.6597 203.048 24.3937C203.431 22.1889 204.372 21.4713 206.429 21.8301C206.748 21.8859 207.079 21.8739 207.486 21.8979C209.28 29.7322 211.066 37.5226 212.872 45.4088C211.365 45.7875 210.488 45.9271 210.057 43.9057C209.148 39.5998 210.022 40.0783 205.484 40.0902C201.178 40.1022 202.299 39.5799 201.386 43.6187C200.999 45.3211 200.525 45.9829 198.539 45.4247L198.535 45.4327ZM202.526 37.9851H208.706C207.689 33.6035 206.724 29.4371 205.755 25.2708L205.452 25.3306C204.484 29.5249 203.515 33.7231 202.53 37.9851H202.526Z" fill="#AB8E5C"/>
<path d="M235.366 21.9426H237.623V31.3518L238.065 31.4634C238.986 30.076 239.915 28.6965 240.82 27.3011C241.646 26.0332 242.575 24.8093 243.217 23.4497C243.954 21.8908 245.055 21.5758 246.805 21.9945C245.525 24.1036 244.397 26.2406 243.005 28.1862C240.274 32.0136 240.278 32.6196 242.726 36.7621C244.357 39.517 245.688 42.4514 247.227 45.4496C245.517 45.8682 244.508 45.7566 243.735 43.9744C242.383 40.8566 240.653 37.9063 238.951 34.633C236.443 38.1097 238.305 41.9212 237.4 45.4895H235.362V21.9426H235.366Z" fill="#AB8E5C"/>
<path d="M227.368 39.4328H229.294C230.458 43.2562 228.672 45.9036 224.796 46.087C224.003 46.1268 223.202 46.1149 222.412 46.067C219.45 45.8956 217.728 44.2849 217.676 41.3186C217.584 36.2751 217.592 31.2317 217.688 26.1882C217.74 23.5369 218.808 22.2092 221.551 21.7667C223.301 21.4836 225.231 21.6231 226.953 22.0657C228.52 22.4684 229.625 23.7362 229.605 25.6021C229.589 26.9896 229.605 28.377 229.605 29.9239H227.296C227.296 28.8076 227.328 27.6952 227.288 26.5869C227.213 24.4618 225.897 23.3096 223.628 23.3296C221.551 23.3455 220.032 24.7011 220.02 26.6905C219.984 31.4031 219.996 36.1156 220.02 40.8242C220.028 42.9453 221.316 44.1174 223.576 44.1533C226.012 44.1932 227.217 43.1127 227.308 40.8202C227.324 40.4295 227.344 40.0348 227.376 39.4288L227.368 39.4328Z" fill="#AB8E5C"/>
<path d="M110.97 23.9879V21.9307H118.342C118.342 25.786 118.342 29.5457 118.342 33.3054C118.342 35.8929 118.342 38.4764 118.342 41.0639C118.342 44.4409 117.078 45.9559 114.144 46.1074C110.249 46.3147 108.925 45.2901 108.511 41.6939C108.431 40.9882 108.499 40.2666 108.499 39.4532H110.691C110.727 40.1589 110.735 40.8088 110.803 41.4467C110.962 43.0175 111.744 44.0621 113.406 44.1299C115.045 44.1977 115.894 43.193 115.914 41.6859C115.982 36.1839 115.986 30.678 115.902 25.176C115.894 24.7733 115.069 24.1155 114.555 24.0358C113.402 23.8643 112.206 23.9799 110.966 23.9799L110.97 23.9879Z" fill="#AB8E5C"/>
<path d="M222.573 55.7593V63.4381L222.187 63.769C221.158 62.1065 220.133 60.4479 218.866 58.4026V63.7132C217.741 62.557 217.51 58.9727 218.24 55.2051C218.953 56.3134 219.432 57.0391 219.886 57.7766C220.389 58.594 220.863 59.4233 221.593 60.6592C221.696 58.7136 221.78 57.2265 221.86 55.7393C222.099 55.7433 222.338 55.7513 222.573 55.7553V55.7593Z" fill="#AB8E5C"/>
<path d="M96.1231 60.1726C96.6613 61.269 97.1637 62.2897 97.662 63.3063L97.1278 63.6851C96.1988 62.4212 95.2699 61.1614 94.3369 59.8975L93.715 60.1886C93.6591 61.277 93.6033 62.3654 93.5435 63.4977C92.5548 62.7123 92.2797 59.1839 92.9136 55.8189C94.5442 55.7431 96.4659 55.0255 97.4547 56.9352C98.0886 58.1632 97.6859 59.5467 96.1191 60.1726H96.1231ZM93.7588 56.712V59.2317C94.9429 59.2317 96.4022 59.8257 96.45 58.0595C96.4978 56.2774 94.9868 56.8435 93.7588 56.712Z" fill="#AB8E5C"/>
<path d="M138.807 63.7486C138.392 63.0269 138.021 62.2814 137.551 61.5996C137.136 60.9936 136.622 60.4633 136.151 59.8972C135.964 60.0009 135.777 60.1005 135.593 60.2042C135.529 61.2886 135.466 62.3771 135.398 63.5333C134.421 62.6562 134.162 58.8766 134.808 55.7907C136.431 55.7907 138.444 54.9694 139.301 56.9788C139.676 57.8599 138.882 59.2433 138.619 60.3956C138.428 60.3557 138.233 60.3158 138.041 60.276C138.536 61.2886 139.034 62.3013 139.528 63.31C139.289 63.4535 139.05 63.6011 138.811 63.7446L138.807 63.7486ZM135.581 59.666C136.67 59.2394 137.495 59.0081 138.197 58.5775C138.384 58.4619 138.348 57.4452 138.165 57.3535C137.415 56.9867 136.57 56.8193 135.577 56.5282V59.666H135.581Z" fill="#AB8E5C"/>
<path d="M261.195 60.2162C261.119 61.3047 261.043 62.3971 260.964 63.5453C259.867 62.7918 259.624 60.2043 260.178 55.7828C261.725 55.9582 263.539 54.7821 264.675 56.8632C265.465 58.3145 264.699 59.3391 263.611 60.2202C264.061 61.2529 264.508 62.2775 264.958 63.3021L264.265 63.6649C263.89 62.9632 263.563 62.2296 263.121 61.5758C262.714 60.9738 262.184 60.4515 261.705 59.8973C261.534 60.001 261.366 60.1046 261.195 60.2083V60.2162ZM261.183 56.4327V59.5504C262.172 59.2195 262.993 59.0401 263.703 58.6494C263.91 58.5338 263.954 57.533 263.79 57.4413C263.061 57.0387 262.231 56.8154 261.183 56.4366V56.4327Z" fill="#AB8E5C"/>
<path d="M162.071 63.4859C162.813 60.9701 163.483 58.5979 164.272 56.2696C164.324 56.1181 165.675 56.1141 165.743 56.3015C166.505 58.3188 167.155 60.3841 167.777 62.4533C167.868 62.7603 167.673 63.155 167.609 63.5098C167.326 63.4381 166.939 63.462 166.776 63.2786C165.105 61.4366 164.324 61.4685 162.813 63.4859C162.789 63.5178 162.689 63.4859 162.075 63.4859H162.071ZM166.006 60.7748C165.723 59.7063 165.48 58.7853 165.093 57.3141C164.551 58.8332 164.232 59.7342 163.861 60.7748H166.006Z" fill="#AB8E5C"/>
<path d="M106.976 63.3537V55.8662H111.501L111.577 56.4084L108.088 56.8749V59.1674C108.666 59.2631 109.268 59.3588 109.87 59.4584L109.902 59.7694C109.328 59.9169 108.754 60.0644 108.08 60.2359V62.8154C109.264 62.8752 110.353 62.9311 111.441 62.9869L111.449 63.3537H106.976Z" fill="#AB8E5C"/>
<path d="M149.939 60.2203V62.8078C151.119 62.8716 152.211 62.9274 153.304 62.9872L153.316 63.346H148.914V55.8745H153.363L153.447 56.4088C152.323 56.5603 151.199 56.7118 149.963 56.8752V59.1637C150.525 59.2594 151.127 59.3591 151.729 59.4588L151.777 59.7618C151.203 59.9053 150.632 60.0488 149.943 60.2203H149.939Z" fill="#AB8E5C"/>
<path d="M194.947 57.8523C193.372 57.3659 192.396 56.7319 191.738 56.9711C191.243 57.1545 191.14 58.4543 190.917 59.2716C190.833 59.5786 190.825 59.9534 190.917 60.2564C191.18 61.1255 191.507 61.9708 191.81 62.8279C192.611 62.4332 193.412 62.0425 194.636 61.4405C194.234 62.206 194.01 63.2785 193.536 63.4061C192.336 63.721 190.574 64.2074 190.183 62.4731C189.792 60.7428 189.86 58.8211 190.151 57.0509C190.418 55.4322 192.025 55.4641 193.217 55.8149C193.835 55.9983 194.222 56.9592 194.943 57.8523H194.947Z" fill="#AB8E5C"/>
<path d="M125.558 56.4409C124.96 56.6243 124.362 56.8077 123.533 57.0629V63.422C123.377 63.5018 123.222 63.5815 123.07 63.6612C122.783 63.3622 122.329 63.1031 122.249 62.7562C122.105 62.1223 122.225 61.4325 122.165 60.7747C122.018 59.0803 123.086 56.9313 120.475 55.9106H125.398L125.562 56.4409H125.558Z" fill="#AB8E5C"/>
<path d="M204.236 63.3616V55.8662H208.387C208.427 56.0177 208.466 56.1692 208.506 56.3207C208.028 56.4403 207.534 56.6955 207.071 56.6516C205.098 56.4563 204.571 57.3135 205.129 59.1275C205.815 59.2671 206.469 59.4026 207.127 59.5382C207.127 59.6498 207.127 59.7575 207.123 59.8691C206.517 59.9648 205.915 60.0565 205.133 60.1801V62.7636C206.186 62.8513 207.262 62.939 208.335 63.0267V63.3656H204.24L204.236 63.3616Z" fill="#AB8E5C"/>
<path d="M246.53 55.8198H250.609C250.649 55.9713 250.685 56.1268 250.725 56.2783C250.198 56.4099 249.68 56.5893 249.15 56.669C248.576 56.7528 247.986 56.7488 247.28 56.7926V59.1409C247.902 59.2526 248.564 59.3682 249.23 59.4878L249.265 59.8107C248.635 59.9383 248.01 60.0659 247.264 60.2174V62.793C248.428 62.8687 249.505 62.9405 250.581 63.0122V63.3711H246.526V55.8198H246.53Z" fill="#AB8E5C"/>
<path d="M178.8 57.2259V63.5173L178.15 63.5612V57.2259C177.11 56.8392 176.472 56.6 175.834 56.3608L175.938 55.8823H180.822L180.977 56.2252C180.371 56.5043 179.765 56.7834 178.8 57.2219V57.2259Z" fill="#AB8E5C"/>
<path d="M233.839 57.0984C233.221 56.8552 232.627 56.624 232.029 56.3888C232.057 56.2333 232.085 56.0778 232.113 55.9263H236.997C237.053 56.01 237.109 56.0977 237.164 56.1814C236.566 56.4805 235.964 56.7755 235.131 57.1901V63.4815C234.88 63.5134 234.633 63.5413 234.382 63.5732C233.409 61.5518 234.413 59.1836 233.843 57.0984H233.839Z" fill="#AB8E5C"/>
<path d="M134.98 15.5469V19.2188H132.544V15.5469H134.98Z" fill="#AB8E5C"/>
<path d="M127.292 19.2268V15.6187H129.8V19.2268H127.292Z" fill="#AB8E5C"/>
</svg>
