<svg width="34" height="34" viewBox="0 0 34 34" fill="none" xmlns="http://www.w3.org/2000/svg">
<path d="M32.3562 27.2188L26.8018 21.4671L22.5295 19.6393C23.952 17.5445 24.7141 15.0454 24.7114 12.4845C24.7114 5.6005 19.3029 0 12.655 0C6.00709 0 0.598633 5.6005 0.598633 12.4845C0.598633 19.3685 6.00709 24.969 12.655 24.969C15.1496 24.9719 17.583 24.1691 19.6161 22.6723L21.3766 27.0845L26.9309 32.8364C27.2871 33.2053 27.71 33.4979 28.1754 33.6976C28.6408 33.8972 29.1397 34 29.6434 34C30.1472 34 30.6461 33.8973 31.1115 33.6977C31.5769 33.498 31.9998 33.2055 32.3561 32.8366C32.7123 32.4677 32.9949 32.0298 33.1877 31.5479C33.3805 31.0659 33.4797 30.5494 33.4798 30.0277C33.4798 29.506 33.3806 28.9895 33.1878 28.5075C32.995 28.0256 32.7125 27.5876 32.3562 27.2188ZM2.7907 12.4845C2.7907 6.85228 7.21594 2.26991 12.655 2.26991C18.0941 2.26991 22.5193 6.85228 22.5193 12.4845C22.5193 18.1167 18.0941 22.6991 12.655 22.6991C7.21594 22.6991 2.7907 18.1167 2.7907 12.4845ZM30.8061 31.2314C30.4975 31.5502 30.0794 31.7292 29.6436 31.7292C29.2077 31.7292 28.7896 31.5502 28.481 31.2314L23.2357 25.7998L21.5989 21.6973L25.5608 23.3922L30.8062 28.8238C31.1141 29.1433 31.2869 29.5763 31.2869 30.0276C31.2869 30.479 31.114 30.9119 30.8061 31.2314Z" fill="#AB8E5C"/>
</svg>
