<svg width="29" height="29" viewBox="0 0 29 29" fill="none" xmlns="http://www.w3.org/2000/svg">
<path d="M8.36073 0H20.3789C24.9572 0 28.6771 3.7199 28.6771 8.29823V20.3164C28.6771 22.5172 27.8028 24.6279 26.2466 26.1841C24.6904 27.7403 22.5797 28.6146 20.3789 28.6146H8.36073C3.7824 28.6146 0.0625 24.8947 0.0625 20.3164V8.29823C0.0625 6.0974 0.936775 3.98672 2.493 2.4305C4.04922 0.874275 6.1599 0 8.36073 0ZM8.07458 2.86146C6.70855 2.86146 5.39847 3.40411 4.43254 4.37004C3.46661 5.33597 2.92396 6.64605 2.92396 8.01208V20.6025C2.92396 23.4496 5.22743 25.7531 8.07458 25.7531H20.665C22.031 25.7531 23.3411 25.2105 24.307 24.2445C25.273 23.2786 25.8156 21.9685 25.8156 20.6025V8.01208C25.8156 5.16493 23.5121 2.86146 20.665 2.86146H8.07458ZM21.8811 5.00755C22.3554 5.00755 22.8103 5.19597 23.1457 5.53137C23.4811 5.86676 23.6695 6.32165 23.6695 6.79596C23.6695 7.27028 23.4811 7.72517 23.1457 8.06056C22.8103 8.39595 22.3554 8.58438 21.8811 8.58438C21.4068 8.58438 20.9519 8.39595 20.6165 8.06056C20.2811 7.72517 20.0927 7.27028 20.0927 6.79596C20.0927 6.32165 20.2811 5.86676 20.6165 5.53137C20.9519 5.19597 21.4068 5.00755 21.8811 5.00755ZM14.3698 7.15365C16.2671 7.15365 18.0866 7.90733 19.4282 9.2489C20.7698 10.5905 21.5234 12.41 21.5234 14.3073C21.5234 16.2046 20.7698 18.0241 19.4282 19.3657C18.0866 20.7073 16.2671 21.4609 14.3698 21.4609C12.4725 21.4609 10.653 20.7073 9.3114 19.3657C7.96983 18.0241 7.21615 16.2046 7.21615 14.3073C7.21615 12.41 7.96983 10.5905 9.3114 9.2489C10.653 7.90733 12.4725 7.15365 14.3698 7.15365ZM14.3698 10.0151C13.2314 10.0151 12.1397 10.4673 11.3348 11.2723C10.5298 12.0772 10.0776 13.1689 10.0776 14.3073C10.0776 15.4457 10.5298 16.5374 11.3348 17.3423C12.1397 18.1473 13.2314 18.5995 14.3698 18.5995C15.5082 18.5995 16.5999 18.1473 17.4048 17.3423C18.2098 16.5374 18.662 15.4457 18.662 14.3073C18.662 13.1689 18.2098 12.0772 17.4048 11.2723C16.5999 10.4673 15.5082 10.0151 14.3698 10.0151Z" fill="#AB8E5C"/>
</svg>
