<svg width="162" height="46" viewBox="0 0 162 46" fill="none" xmlns="http://www.w3.org/2000/svg">
<path d="M83.9912 28.3816V6.13086C86.5573 6.32341 89.0716 6.32711 91.5007 6.78627C92.4597 6.96772 93.5188 8.00453 94.0261 8.92655C95.348 11.3297 94.5778 14.903 92.5005 16.8582C95.996 18.7244 94.8814 21.9793 94.7518 24.8305C94.6667 26.7338 92.8893 28.2557 91.0563 28.352C88.7383 28.4742 86.4129 28.3816 83.9912 28.3816ZM86.5388 17.6617V26.5227C88.5828 26.482 91.0823 27.2115 91.945 25.1527C92.6671 23.4271 92.5782 20.9573 91.9191 19.1577C91.086 16.873 88.5828 17.795 86.5388 17.6617ZM86.487 15.8621C88.3569 15.7399 90.6638 16.7508 91.5748 14.7734C92.2524 13.3034 92.2635 10.9965 91.5636 9.54864C90.6786 7.72681 88.4162 8.2193 86.487 8.40814V15.8584V15.8621Z" fill="#AB8E5C"/>
<path d="M77.4927 6.35639V28.1887C76.0893 28.633 75.2709 28.4294 74.66 26.9038C72.7715 22.2011 70.6941 17.5725 68.6835 12.9216C68.5687 12.655 68.3798 12.418 67.9799 11.7737V28.2405H65.8359V6.45266C67.3282 5.96018 68.0762 6.42304 68.6575 7.86717C70.6016 12.6772 72.7048 17.4207 74.7525 22.19C74.8377 22.39 74.9747 22.5677 75.4487 22.701V6.35639H77.4927Z" fill="#AB8E5C"/>
<path d="M30.94 17.3356C30.94 15.4842 31.0437 13.629 30.9178 11.785C30.5845 6.90454 33.8801 5.60853 37.5645 5.89365C41.3082 6.18618 42.6819 7.84138 42.6856 11.6554C42.6893 15.6656 42.6967 19.6721 42.6856 23.6824C42.6745 26.9743 41.049 28.6813 37.783 28.8109C36.798 28.8479 35.8019 28.859 34.8281 28.7406C32.5582 28.4665 30.9808 26.6706 30.9474 24.3674C30.9141 22.0235 30.94 19.6796 30.94 17.3356ZM40.1973 17.5134C40.1973 15.1694 40.2232 12.8292 40.1899 10.4852C40.164 8.72637 39.0716 7.78583 37.0239 7.67104C35.0836 7.55996 33.4247 8.60788 33.3951 10.2335C33.3136 15.0398 33.321 19.8462 33.3951 24.6526C33.4173 26.1374 34.9947 27.0742 36.9535 27.0113C39.1642 26.9409 40.1603 26.1522 40.1899 24.3563C40.2269 22.0753 40.1973 19.7943 40.1973 17.5134Z" fill="#AB8E5C"/>
<path d="M9.819 17.0139C11.8704 17.736 12.1259 19.4134 11.9852 21.3093C11.9259 22.1054 11.9815 22.9127 11.9741 23.7162C11.9445 26.8414 10.4448 28.367 7.36397 28.3892C5.45328 28.4041 3.54258 28.3892 1.47266 28.3892V6.33846C4.36092 6.35328 7.37878 5.76081 10.1004 7.48636C10.7077 7.87147 11.3742 8.64537 11.4483 9.30449C11.6519 11.0671 11.7038 12.8852 11.4927 14.6441C11.4001 15.4069 10.5114 16.0734 9.819 17.0102V17.0139ZM3.46111 17.673C3.46111 20.428 3.45001 22.8793 3.47222 25.3344C3.47222 25.675 3.54258 26.1305 3.76475 26.3378C5.02744 27.5043 9.41168 26.1342 9.68569 24.3901C9.91157 22.9608 9.80789 21.4537 9.65237 20.0022C9.48944 18.5099 8.34894 17.836 6.97517 17.6953C5.89392 17.5842 4.79416 17.673 3.46482 17.673H3.46111ZM3.55739 16.0178C5.59769 15.5439 8.07493 16.9214 9.00066 14.4589C9.53758 13.0296 9.50795 10.9041 8.79329 9.60813C7.76389 7.74557 5.54215 8.1677 3.55369 8.46023V16.0141L3.55739 16.0178Z" fill="#AB8E5C"/>
<path d="M56.5715 20.3985C57.9564 23.1239 59.2413 25.6567 60.5447 28.2265C59.0006 28.5709 57.9453 28.5709 57.3898 26.8638C56.9048 25.379 55.8679 24.0829 55.257 22.624C54.4831 20.7799 53.287 20.143 51.2393 20.8614V28.2524H49.1064V6.13867C51.5948 6.32382 53.9795 6.36455 56.316 6.71632C58.3156 7.01626 59.2968 8.41225 59.3376 10.5007C59.3709 12.1633 59.2783 13.8296 59.3598 15.4885C59.4709 17.7176 58.8488 19.4839 56.5678 20.4023L56.5715 20.3985ZM51.3356 8.27895V18.499C52.3243 18.499 53.1759 18.499 54.0313 18.499C56.49 18.4879 57.1566 17.825 57.1973 15.3071C57.2195 14.0777 57.2195 12.8446 57.1973 11.6153C57.1528 9.42685 56.1012 8.36782 53.9054 8.29006C53.1093 8.26043 52.3132 8.28636 51.3356 8.28636V8.27895Z" fill="#AB8E5C"/>
<path d="M149.893 28.3109H147.671C149.256 21.2828 150.807 14.3362 152.433 7.40803C152.54 6.95628 153.21 6.44528 153.707 6.32678C154.458 6.14534 155.288 6.27865 156.173 6.27865C157.809 13.6326 159.428 20.9125 161.042 28.1702C158.88 28.8589 158.561 27.6703 158.298 26.278C157.728 23.2231 157.702 23.2268 154.651 23.2268C152.313 23.2268 150.855 24.3772 150.278 26.6779C150.148 27.2 150.03 27.7296 149.893 28.3146V28.3109ZM154.499 9.51868H154.229C153.333 13.4178 152.433 17.317 151.526 21.2643H157.273C156.317 17.217 155.41 13.3697 154.499 9.51868Z" fill="#AB8E5C"/>
<path d="M99.3916 28.1962C99.9174 25.5671 100.391 22.9936 100.954 20.4386C101.821 16.5098 102.895 12.6181 103.583 8.65595C103.939 6.60825 104.813 5.94173 106.723 6.27499C107.02 6.32683 107.327 6.31572 107.705 6.33794C109.371 13.6141 111.03 20.8496 112.707 28.174C111.308 28.5257 110.493 28.6553 110.093 26.778C109.249 22.7788 110.06 23.2232 105.846 23.2343C101.847 23.2454 102.887 22.7603 102.039 26.5113C101.68 28.0925 101.239 28.7072 99.3953 28.1888L99.3916 28.1962ZM103.098 21.2791H108.838C107.893 17.2097 106.997 13.3401 106.098 9.47059L105.816 9.52614C104.916 13.4216 104.017 17.3207 103.102 21.2791H103.098Z" fill="#AB8E5C"/>
<path d="M133.599 6.37914H135.695V15.118L136.106 15.2217C136.962 13.9331 137.824 12.6519 138.665 11.3558C139.431 10.1783 140.294 9.04152 140.89 7.77884C141.575 6.331 142.597 6.03847 144.223 6.42728C143.034 8.38611 141.986 10.3709 140.694 12.1779C138.158 15.7327 138.161 16.2955 140.435 20.1428C141.949 22.7015 143.186 25.4269 144.616 28.2114C143.027 28.6003 142.09 28.4966 141.372 26.8414C140.117 23.9457 138.509 21.2056 136.928 18.1655C134.599 21.3944 136.328 24.9344 135.488 28.2485H133.596V6.37914H133.599Z" fill="#AB8E5C"/>
<path d="M126.171 22.6232H127.96C129.041 26.1743 127.382 28.633 123.783 28.8034C123.046 28.8404 122.301 28.8293 121.568 28.7849C118.817 28.6256 117.217 27.1297 117.169 24.3747C117.084 19.6905 117.092 15.0064 117.18 10.3222C117.229 7.85976 118.221 6.6267 120.768 6.21568C122.394 5.95277 124.186 6.08237 125.786 6.49339C127.241 6.86739 128.267 8.04491 128.248 9.77787C128.234 11.0665 128.248 12.3551 128.248 13.7918H126.104C126.104 12.755 126.134 11.7219 126.097 10.6925C126.027 8.71884 124.805 7.6487 122.698 7.66721C120.768 7.68202 119.358 8.94101 119.347 10.7888C119.313 15.1656 119.324 19.5424 119.347 23.9155C119.354 25.8855 120.55 26.9741 122.65 27.0075C124.912 27.0445 126.03 26.041 126.115 23.9118C126.13 23.549 126.149 23.1824 126.178 22.6195L126.171 22.6232Z" fill="#AB8E5C"/>
<path d="M18.0649 8.27886V6.36816H24.9116C24.9116 9.94887 24.9116 13.4407 24.9116 16.9325C24.9116 19.3357 24.9116 21.7352 24.9116 24.1384C24.9116 27.2747 23.7377 28.6819 21.0124 28.8226C17.3947 29.0151 16.1653 28.0635 15.7802 24.7234C15.7061 24.068 15.7691 23.3978 15.7691 22.6424H17.8057C17.839 23.2978 17.8464 23.9014 17.9094 24.4939C18.0575 25.9528 18.7833 26.923 20.3274 26.9859C21.8493 27.0489 22.638 26.1157 22.6565 24.716C22.7194 19.606 22.7231 14.4923 22.6454 9.38233C22.638 9.00833 21.8715 8.39735 21.3938 8.3233C20.3237 8.16407 19.2128 8.27146 18.0612 8.27146L18.0649 8.27886Z" fill="#AB8E5C"/>
<path d="M121.717 37.7872V44.919L121.358 45.2263C120.403 43.6822 119.451 42.1418 118.274 40.2422V45.1745C117.229 44.1006 117.015 40.7717 117.692 37.2725C118.355 38.3019 118.799 38.9758 119.221 39.6608C119.688 40.4199 120.129 41.1901 120.806 42.338C120.903 40.531 120.98 39.1498 121.054 37.7686C121.277 37.7724 121.499 37.7798 121.717 37.7835V37.7872Z" fill="#AB8E5C"/>
<path d="M4.27545 41.8862C4.77534 42.9045 5.24191 43.8524 5.70477 44.7967L5.20858 45.1485C4.3458 43.9746 3.48303 42.8045 2.61655 41.6307L2.0389 41.901C1.98706 42.9119 1.93522 43.9228 1.87967 44.9744C0.961352 44.2449 0.705852 40.9679 1.29461 37.8426C2.8091 37.7723 4.5939 37.1058 5.51222 38.8794C6.10098 40.0199 5.72699 41.3048 4.27175 41.8862H4.27545ZM2.07963 38.6721V41.0123C3.17939 41.0123 4.53465 41.564 4.57909 39.9237C4.62352 38.2685 3.22012 38.7943 2.07963 38.6721Z" fill="#AB8E5C"/>
<path d="M43.9185 45.2074C43.5334 44.5372 43.189 43.8448 42.7521 43.2116C42.367 42.6487 41.8893 42.1562 41.4523 41.6304C41.2783 41.7267 41.1043 41.8193 40.9339 41.9155C40.8747 42.9227 40.8154 43.9336 40.7525 45.0075C39.8453 44.1928 39.6046 40.6825 40.2045 37.8164C41.7115 37.8164 43.5815 37.0536 44.3776 38.9199C44.7257 39.7382 43.9888 41.0231 43.7444 42.0933C43.5667 42.0562 43.3852 42.0192 43.2075 41.9822C43.6667 42.9227 44.1295 43.8633 44.5887 44.8001C44.3665 44.9334 44.1443 45.0704 43.9222 45.2037L43.9185 45.2074ZM40.9228 41.4156C41.9337 41.0194 42.7002 40.8047 43.3519 40.4048C43.526 40.2974 43.4926 39.3531 43.3223 39.268C42.6262 38.9273 41.8411 38.7718 40.9191 38.5015V41.4156H40.9228Z" fill="#AB8E5C"/>
<path d="M157.587 41.9265C157.517 42.9374 157.447 43.952 157.373 45.0184C156.354 44.3186 156.128 41.9154 156.643 37.8089C158.08 37.9718 159.765 36.8795 160.82 38.8124C161.553 40.1602 160.842 41.1119 159.831 41.9302C160.25 42.8893 160.664 43.8409 161.083 44.7926L160.439 45.1295C160.091 44.4778 159.787 43.7965 159.376 43.1892C158.998 42.6301 158.506 42.145 158.061 41.6303C157.902 41.7266 157.747 41.8228 157.587 41.9191V41.9265ZM157.576 38.4125V41.3081C158.495 41.0008 159.257 40.8342 159.916 40.4713C160.109 40.3639 160.15 39.4345 159.998 39.3493C159.32 38.9753 158.55 38.7679 157.576 38.4162V38.4125Z" fill="#AB8E5C"/>
<path d="M65.5254 44.9629C66.2141 42.6264 66.8362 40.4231 67.5694 38.2606C67.6175 38.1199 68.8728 38.1162 68.9358 38.2903C69.643 40.1639 70.2466 42.082 70.8242 44.0038C70.9094 44.289 70.728 44.6556 70.6687 44.9851C70.4058 44.9185 70.0466 44.9407 69.8948 44.7703C68.3433 43.0596 67.6175 43.0892 66.2141 44.9629C66.1919 44.9925 66.0993 44.9629 65.5291 44.9629H65.5254ZM69.1802 42.4449C68.9172 41.4525 68.6914 40.5972 68.3322 39.2308C67.8286 40.6416 67.5324 41.4785 67.188 42.4449H69.1802Z" fill="#AB8E5C"/>
<path d="M14.3545 44.8408V37.8867H18.5573L18.6276 38.3903L15.3876 38.8236V40.9527C15.9245 41.0416 16.4837 41.1305 17.0428 41.223L17.0724 41.5119C16.5392 41.6489 16.006 41.7859 15.3802 41.9451V44.3409C16.48 44.3964 17.4909 44.4483 18.5017 44.5001L18.5091 44.8408H14.3545Z" fill="#AB8E5C"/>
<path d="M54.2573 41.9307V44.3339C55.3534 44.3931 56.368 44.445 57.3826 44.5005L57.3937 44.8338H53.3057V37.8945H57.4381L57.5159 38.3907C56.4716 38.5314 55.4274 38.6721 54.2795 38.824V40.9494C54.8016 41.0383 55.3608 41.1309 55.9199 41.2234L55.9643 41.5049C55.4311 41.6382 54.9016 41.7715 54.261 41.9307H54.2573Z" fill="#AB8E5C"/>
<path d="M96.0592 39.7308C94.5966 39.279 93.6894 38.6903 93.0784 38.9125C92.6192 39.0828 92.523 40.2899 92.3156 41.049C92.2378 41.3342 92.2304 41.6822 92.3156 41.9637C92.56 42.7709 92.8636 43.5559 93.145 44.352C93.8893 43.9854 94.6336 43.6226 95.7704 43.0634C95.3964 43.7744 95.189 44.7705 94.7484 44.8889C93.6338 45.1815 91.9971 45.6332 91.6343 44.0225C91.2714 42.4154 91.3343 40.6306 91.6046 38.9865C91.8527 37.4831 93.345 37.5128 94.4522 37.8386C95.0261 38.009 95.3853 38.9014 96.0555 39.7308H96.0592Z" fill="#AB8E5C"/>
<path d="M31.6138 38.4202C31.0583 38.5906 30.5029 38.7609 29.7327 38.9979V44.904C29.5883 44.9781 29.4439 45.0521 29.3032 45.1262C29.0366 44.8485 28.6144 44.6078 28.5404 44.2856C28.4071 43.6969 28.5182 43.0563 28.4626 42.4453C28.3256 40.8715 29.318 38.8757 26.8926 37.9277H31.4657L31.6175 38.4202H31.6138Z" fill="#AB8E5C"/>
<path d="M104.688 44.8482V37.8867H108.542C108.579 38.0274 108.616 38.1681 108.653 38.3088C108.209 38.4199 107.75 38.6569 107.32 38.6162C105.487 38.4347 104.999 39.2309 105.517 40.9157C106.154 41.0453 106.761 41.1712 107.372 41.2971C107.372 41.4008 107.372 41.5008 107.368 41.6044C106.806 41.6933 106.246 41.7785 105.521 41.8933V44.2927C106.498 44.3742 107.498 44.4557 108.494 44.5371V44.8519H104.691L104.688 44.8482Z" fill="#AB8E5C"/>
<path d="M143.968 37.8428H147.756C147.793 37.9835 147.826 38.1279 147.863 38.2686C147.374 38.3908 146.893 38.5574 146.4 38.6315C145.867 38.7093 145.319 38.7055 144.664 38.7463V40.9273C145.241 41.031 145.856 41.1384 146.474 41.2494L146.508 41.5494C145.923 41.6679 145.341 41.7864 144.649 41.9271V44.3191C145.73 44.3895 146.73 44.4562 147.73 44.5228V44.8561H143.964V37.8428H143.968Z" fill="#AB8E5C"/>
<path d="M81.0626 39.1492V44.9924L80.459 45.0332V39.1492C79.4925 38.7901 78.9001 38.5679 78.3076 38.3457L78.4039 37.9014H82.9399L83.0844 38.2198C82.5215 38.479 81.9587 38.7382 81.0626 39.1455V39.1492Z" fill="#AB8E5C"/>
<path d="M132.181 39.031C131.607 38.8052 131.055 38.5904 130.5 38.3719C130.526 38.2275 130.552 38.0831 130.578 37.9424H135.114C135.166 38.0201 135.217 38.1016 135.269 38.1794C134.714 38.4571 134.155 38.7311 133.381 39.1162V44.9594C133.148 44.989 132.918 45.0149 132.685 45.0445C131.781 43.1672 132.714 40.9677 132.185 39.031H132.181Z" fill="#AB8E5C"/>
<path d="M40.364 0.439453V3.84983H38.1016V0.439453H40.364Z" fill="#AB8E5C"/>
<path d="M33.2246 3.85699V0.505859H35.5537V3.85699H33.2246Z" fill="#AB8E5C"/>
</svg>
