<svg width="72" height="72" viewBox="0 0 72 72" fill="none" xmlns="http://www.w3.org/2000/svg">
<path d="M35.7782 0.00507469C55.6531 -0.312078 70.3292 15.8337 71.4444 32.79C72.1284 43.1959 69.1124 52.3581 62.0873 60.0174C55.0644 67.6747 46.1157 71.5033 35.7761 71.5324C26.1102 71.5593 17.5823 68.137 10.6879 61.3026C2.94145 53.6267 -0.507845 44.1847 0.0601277 33.2792C0.970128 15.8503 15.9509 -0.328661 35.7782 0.00507469ZM5.56781 21.047L5.25066 21.074C5.63207 23.008 5.7751 25.0291 6.4405 26.8594C8.39524 32.2448 12.0187 36.1398 17.4455 38.2064C22.0452 39.958 26.6118 39.7508 31.1224 37.8561C31.3505 37.7608 31.5826 37.5286 31.6821 37.3027C32.2791 35.9387 33.413 35.3583 34.7707 35.0287C35.2827 34.9043 35.8735 34.7551 36.2321 34.411C40.6847 30.1367 42.6996 24.9627 41.9595 18.7627C41.4703 14.6646 39.7063 11.1738 36.9162 8.22617C34.5676 5.74699 31.6365 4.09075 28.3282 3.24915C26.9746 2.90505 25.5671 2.42622 24.1016 2.99004C17.7606 5.43191 12.3586 9.16934 8.26879 14.6397C6.86337 16.5198 4.97911 18.2714 5.57195 21.047H5.56781ZM44.0076 35.9677C44.2812 36.7077 44.4885 37.2674 44.6978 37.825C44.7704 38.0157 44.8098 38.2417 44.9383 38.3847C45.3632 38.8636 49.0509 38.5091 49.4821 38.0385C50.6781 36.7285 51.0782 35.2049 50.8502 33.4823C50.7237 32.5205 51.0056 31.8758 51.9778 31.4467C52.5831 31.1793 53.29 30.6673 53.5159 30.0931C55.081 26.1339 55.4126 21.9757 54.9504 17.7926C54.5462 14.136 53.3542 10.6888 51.6648 7.39287C50.3485 4.82248 48.6343 2.90713 45.6451 2.41171C44.7393 2.26246 43.8666 1.92457 42.9649 1.75045C41.8352 1.53072 40.6889 1.39184 39.5488 1.21772C49.9651 10.0192 51.9716 25.0311 44.0055 35.9656L44.0076 35.9677ZM4.79876 20.1432C3.36018 22.8587 2.44188 25.7691 1.76405 28.7748C1.4386 30.2134 1.48835 31.4447 2.27191 32.8356C5.3543 38.3059 9.81724 42.0558 15.6794 44.1888C19.4168 45.5486 23.2765 46.0067 27.1964 45.3724C29.0993 45.0636 30.9463 44.394 32.8077 43.8551C33.0295 43.7908 33.386 43.426 33.3508 43.3534C32.8678 42.3149 33.9976 40.7996 32.3683 40.0741C32.0739 39.9435 31.9081 39.4149 31.7816 39.0356C31.566 38.3847 31.2676 38.393 30.6374 38.5692C28.807 39.0812 26.9559 39.6699 25.08 39.8233C21.4648 40.1218 17.9948 39.3693 14.7922 37.5887C10.1385 35.0018 7.00018 31.1814 5.67767 26.0095C5.19261 24.1128 5.08275 22.1208 4.79876 20.1453V20.1432ZM43.5909 35.4267C43.6241 35.4267 43.6738 35.4391 43.6821 35.4267C44.1216 34.7406 44.5797 34.0627 44.9922 33.36C48.1658 27.9601 49.1276 22.1581 47.8445 16.0576C46.7521 10.8608 44.1506 6.46836 40.2763 2.79934C38.9207 1.51621 37.4137 0.873617 35.6144 0.929586C34.0805 0.977262 32.5403 1.112 31.0209 1.32758C29.5885 1.53073 28.1789 1.89141 26.759 2.18369C34.1406 3.81713 39.3 7.98572 41.6528 15.0419C43.9785 22.013 42.3928 28.4452 37.6894 34.1353C38.2967 33.6046 38.7072 32.962 39.242 32.45C39.6545 32.0562 40.2038 31.6126 40.7282 31.5628C43.054 31.3472 44.3434 33.1424 43.5909 35.4288V35.4267ZM1.37227 32.3795C1.37227 35.1572 1.34118 37.8354 1.38678 40.5136C1.40544 41.6018 1.82209 42.5678 2.77562 43.2166C4.72207 44.5391 6.62498 45.9301 8.62947 47.1572C9.81517 47.8827 11.1107 48.5896 12.4498 48.8673C14.2781 49.2467 16.1914 49.3192 18.0694 49.3296C21.3031 49.3483 24.5389 49.2508 27.7726 49.1347C29.9969 49.056 32.219 48.8756 34.4412 48.7202C35.0817 48.6746 35.4071 48.3968 35.5543 47.6526C35.7719 46.5498 35.5356 45.7414 34.8557 44.8604C34.3603 44.2178 34.0328 43.8965 33.2057 44.2427C28.6972 46.129 24.0249 46.554 19.2323 45.673C14.3693 44.7796 10.1344 42.6694 6.55243 39.2201C4.4671 37.2115 2.77355 34.9271 1.3702 32.3795H1.37227ZM50.6761 4.53642C55.68 12.4487 56.8471 20.8874 54.2891 29.9004C54.5524 29.8444 54.6664 29.8485 54.7493 29.7988C56.7994 28.5696 58.8557 27.3486 60.883 26.0842C61.1359 25.9266 61.3307 25.5494 61.395 25.2405C61.5297 24.6083 61.5981 23.9553 61.6251 23.3065C61.7888 19.3369 61.4385 15.4274 60.145 11.6465C59.9647 11.122 59.631 10.5913 59.2288 10.2099C56.7248 7.84062 53.8725 5.97294 50.6761 4.53435V4.53642ZM45.5892 41.3697C45.5975 41.2619 45.6058 41.1541 45.6141 41.0484C45.1891 41.0028 44.7642 40.9489 44.3371 40.9136C43.8998 40.8763 43.4624 40.8577 43.025 40.8328V40.5695C43.2199 40.5011 43.4189 40.4327 43.6199 40.3623C41.6154 39.0605 41.5512 38.8097 42.3389 35.406C41.8393 35.3231 41.3418 35.2381 40.8422 35.1551C40.8526 35.0805 40.863 35.0038 40.8713 34.9292C41.6175 34.8567 42.3638 34.7841 43.11 34.7115C43.1017 34.5561 43.0913 34.4006 43.083 34.2451H39.7478V33.8223H42.8799C42.8861 33.6606 42.8944 33.4989 42.9006 33.3393C42.1648 33.3061 41.3978 33.1299 40.7034 33.2833C40.0235 33.4346 39.4057 33.9031 38.7797 34.2659C38.1413 34.6348 37.5277 35.0453 36.9037 35.4371C37.6106 35.4682 38.3092 35.5013 39.0077 35.5324C39.0015 35.6817 38.9974 35.8309 38.9912 35.9802H34.0597C34.0597 36.1232 34.0639 36.2641 34.066 36.4072H38.1019C38.0957 36.5274 38.0874 36.6476 38.0812 36.7679C36.5742 36.7679 35.0672 36.7554 33.5622 36.772C32.5838 36.7824 32.02 37.512 32.4056 38.4137C32.6709 39.0335 33.1788 39.56 33.6224 40.0886C34.095 40.6525 34.7459 41.1044 35.0817 41.7324C35.3138 42.1657 35.1604 42.8145 35.1501 43.3659C35.1211 44.8729 37.0261 46.6245 38.7175 45.4844C40.4007 44.3484 42.2871 44.0147 44.3143 44.1515C45.6534 44.2406 46.2566 43.341 45.9146 42.0102C45.3093 41.9605 44.6958 41.9086 44.0843 41.8589L44.0884 41.5915C44.588 41.5189 45.0896 41.4464 45.5892 41.3759V41.3697ZM65.6817 43.0881C66.5689 43.1648 66.8218 42.7502 66.8198 42.0454C66.8135 39.2118 66.8446 36.3782 66.7845 33.5466C66.7762 33.1154 66.4674 32.5226 66.1108 32.2925C64.1602 31.0342 62.1475 29.8713 60.1637 28.6608C59.5936 28.3125 59.092 28.2192 58.466 28.6131C56.4118 29.9024 54.314 31.1234 52.2598 32.4127C52.0027 32.5744 51.7602 32.989 51.7581 33.2895C51.7249 37.1928 51.7249 41.0981 51.7602 45.0014C51.7623 45.275 52.1043 45.5445 52.2888 45.816C52.5002 45.5362 52.8754 45.2667 52.892 44.9765C52.9645 43.8406 52.9645 42.6963 52.9086 41.5583C52.8671 40.6918 53.1967 40.4162 54.0487 40.4265C57.33 40.4638 60.6114 40.441 63.8928 40.441C65.0302 40.441 65.6071 41.0263 65.6237 42.1968C65.6278 42.4704 65.6548 42.7419 65.6776 43.0902L65.6817 43.0881ZM58.1012 62.3018C58.0411 62.1463 57.9809 61.9908 57.9229 61.8354C57.3072 61.8354 56.6501 61.6965 56.0822 61.8582C52.8008 62.793 49.5733 63.9269 46.267 64.7561C40.9148 66.0993 35.517 67.2643 30.1357 68.4894C29.1034 68.7257 28.0546 68.8956 27.014 69.0967C29.3398 69.6875 31.5536 70.4379 34.0307 69.93C41.2962 68.4396 48.4228 66.4766 55.4251 64.0575C56.4035 63.7196 57.214 62.9008 58.1032 62.3038L58.1012 62.3018ZM22.2629 67.4052L22.2318 67.7058C23.3906 68.0665 24.6136 68.8687 25.6956 68.7091C29.9057 68.0893 34.0929 67.2684 38.2449 66.3232C41.9989 65.4671 45.7011 64.3747 49.4116 63.3382C51.3062 62.8076 53.1718 62.1712 55.0499 61.5804L55.0333 61.2881C53.5802 61.2342 52.0566 60.8694 50.6906 61.1866C46.5427 62.1484 42.484 63.4958 38.3361 64.4597C34.2878 65.4007 30.1751 66.0641 26.0853 66.8228C24.8188 67.0591 23.5377 67.2125 22.2629 67.4052ZM61.082 11.976C62.1288 16.4245 62.3962 20.8211 61.9153 25.0975C64.2514 25.0705 65.6237 26.9776 67.7132 27.6575C67.8313 26.3972 68.0137 25.1887 68.0324 23.9781C68.0428 23.3189 67.9184 22.5789 67.6095 22.0088C66.343 19.6686 65.0433 17.3428 63.6296 15.0916C62.9206 13.9639 61.9402 13.0083 61.082 11.976ZM44.7476 39.4668C44.7351 39.5414 44.7227 39.6139 44.7082 39.6886C44.9528 39.7943 45.2057 39.8834 45.4379 40.0099C46.4038 40.526 46.9925 41.9439 46.7438 43.1254C46.5551 44.023 45.726 44.8936 44.8181 44.8169C42.6768 44.6366 40.7448 45.1092 38.9456 46.2493C38.7507 46.3736 38.4999 46.4566 38.2698 46.4752C37.138 46.5664 37.3494 47.379 37.2603 48.2206C38.2263 48.1066 39.072 48.034 39.9115 47.9055C43.0789 47.4246 46.2463 46.9396 49.4074 46.4213C50.1558 46.299 50.8108 45.9218 50.8357 45.0491C50.8771 43.6001 50.873 42.1491 50.8398 40.7001C50.8232 39.9933 50.3879 39.5062 49.6873 39.4833C48.0435 39.4336 46.3955 39.4668 44.7497 39.4668H44.7476ZM54.3886 54.9119C42.5565 53.4505 30.768 53.8527 18.9525 55.9691C19.3235 56.479 19.7775 57.0014 20.2004 56.9744C21.9685 56.8687 23.7222 56.5578 25.4862 56.3961C28.7552 56.0955 32.0262 55.7369 35.3035 55.6063C38.7155 55.4695 42.1378 55.5711 45.556 55.5835C45.9955 55.5835 46.4391 55.7411 46.8764 55.7245C48.9307 55.6416 51.0305 56.3816 53.0412 55.3783C53.462 55.1689 53.9367 55.0653 54.3865 54.914L54.3886 54.9119ZM60.4187 27.6057C60.5534 27.7508 60.6259 27.8751 60.7337 27.9394C62.4874 28.9966 64.1913 30.1574 66.0196 31.0633C67.3629 31.7287 67.8023 32.5827 67.7318 34.0441C67.6095 36.5564 67.68 39.0812 67.7194 41.5998C67.7256 41.9522 67.9433 42.4766 68.2086 42.5968C68.4926 42.7254 69.0087 42.5575 69.3155 42.3543C69.5933 42.1719 69.8358 41.7946 69.9104 41.4609C70.6111 38.3246 70.5074 35.1448 70.2711 31.9753C70.2172 31.2415 70.1799 30.3585 69.2533 29.8734C67.8044 29.1147 66.3181 28.3478 65.0578 27.3258C63.5156 26.0738 62.164 26.0904 60.7047 27.2947C60.626 27.359 60.5638 27.444 60.4166 27.6036L60.4187 27.6057ZM49.4593 60.9855C49.4531 60.9026 49.4489 60.8197 49.4427 60.7367C48.1409 60.6559 46.7811 60.2952 45.5456 60.546C41.4455 61.3773 37.4075 62.5256 33.3073 63.3631C29.7067 64.099 26.0563 64.5882 22.4267 65.1707C21.1746 65.3717 19.9143 65.5251 18.6561 65.7013C18.6353 65.8153 18.6146 65.9293 18.5939 66.0434C19.649 66.3564 20.7393 67.0176 21.753 66.914C24.9349 66.5927 28.1085 66.0931 31.2447 65.4567C35.4133 64.613 39.5488 63.6056 43.6863 62.6086C45.6286 62.1401 47.5377 61.5307 49.4613 60.9855H49.4593ZM19.9786 54.5865L20.049 54.8995C20.2729 54.916 20.5009 54.9699 20.7227 54.9471C22.5883 54.744 24.4477 54.487 26.3175 54.3253C29.829 54.0226 33.3425 53.5832 36.8581 53.55C41.7025 53.5044 46.551 53.7635 51.3954 53.9356C52.5168 53.975 53.6299 54.2133 54.7514 54.3128C55.9391 54.4165 57.102 54.3419 58.3313 53.4277C56.9175 53.3178 55.7422 53.2142 54.5648 53.1375C50.2926 52.8577 46.0224 52.5239 41.746 52.3415C39.6586 52.2524 37.5546 52.3996 35.4631 52.5322C31.707 52.7706 27.9447 52.9945 24.2031 53.3966C22.7708 53.55 21.3861 54.176 19.9806 54.5865H19.9786ZM20.7414 57.5362C21.896 58.5581 22.7915 58.6721 25.0012 58.4897C29.0972 58.1518 33.1974 57.8824 37.3017 57.6689C39.3332 57.5631 41.3771 57.5901 43.4106 57.6689C44.9507 57.729 46.4038 57.4491 47.8466 56.9827C48.3876 56.8086 48.9307 56.6366 49.4738 56.4645C41.574 55.7183 22.9988 56.5142 20.7414 57.5341V57.5362ZM16.1955 64.0492C16.152 64.1508 16.1085 64.2544 16.0649 64.356C16.7303 64.6151 17.4165 65.1333 18.0591 65.0857C20.6813 64.8908 23.3056 64.6172 25.8988 64.1943C29.431 63.6181 32.9424 62.9174 36.4498 62.1981C38.7092 61.7359 40.9397 61.143 43.1846 60.6082C41.8269 60.3284 40.4629 60.0444 39.1819 60.2538C36.0228 60.7678 32.9093 61.5597 29.7606 62.1442C27.2793 62.6044 24.7773 62.9485 22.2774 63.2988C20.2563 63.5828 18.2249 63.8005 16.1997 64.0492H16.1955ZM4.57696 50.4573L4.37589 50.7433C4.79255 51.1061 5.16981 51.7134 5.63414 51.7901C7.51633 52.1031 9.42339 52.2752 11.3263 52.4555C12.5535 52.5737 13.7868 52.6421 15.0202 52.6898C16.977 52.7665 18.9442 52.9655 20.8886 52.8328C25.4552 52.5219 30.0114 52.0472 34.5717 51.6264C34.8951 51.5973 35.2081 51.4647 35.5253 51.3797L35.4776 51.0107C25.1546 51.8958 14.8502 51.873 4.57696 50.4552V50.4573ZM35.3449 50.621L35.6082 50.2583C35.3366 50.0447 35.09 49.7131 34.7853 49.6468C34.3251 49.5452 33.8234 49.6011 33.3425 49.6405C30.9898 49.8312 28.6391 50.2085 26.2885 50.2023C21.7861 50.1898 17.2817 50.0074 12.7836 49.8064C10.8433 49.7193 8.91139 49.425 6.97738 49.2073C5.943 49.0912 4.9107 48.9357 3.84938 48.7927C3.82243 49.5493 4.06703 49.9079 4.77182 49.9826C7.11419 50.2334 9.44412 50.6127 11.7906 50.7765C15.043 51.0024 18.3057 51.1227 21.5664 51.1994C23.177 51.2367 24.7898 51.0812 26.4025 51.0107C29.3833 50.8801 32.3641 50.7495 35.3449 50.6189V50.621ZM69.0274 45.0781C67.6821 45.3496 66.3948 45.6191 65.1013 45.8679C59.3159 46.9852 53.5284 48.09 47.7471 49.228C47.5356 49.2695 47.1957 49.6841 47.2392 49.7856C47.347 50.0365 47.6123 50.2852 47.8735 50.3888C48.1057 50.4801 48.4187 50.3992 48.6882 50.3474C51.0595 49.8831 53.4268 49.4021 55.7982 48.9378C59.7761 48.1584 63.754 47.3831 67.7339 46.6141C68.4926 46.4669 69.0958 46.1912 69.0253 45.0781H69.0274ZM68.4573 46.952C61.5857 48.3035 54.8301 49.6343 48.0746 50.963C48.0476 51.077 48.0228 51.189 47.9958 51.303C48.5638 51.4833 49.14 51.8316 49.6997 51.8067C50.8502 51.7528 52.0006 51.5455 53.1345 51.3196C57.7426 50.4075 62.3361 49.4146 66.9586 48.5771C67.879 48.4113 68.3164 48.1232 68.4573 46.952ZM47.0775 48.2849C47.1418 48.4341 47.206 48.5813 47.2703 48.7305C47.9378 48.6497 48.6135 48.6062 49.2706 48.4797C55.5867 47.2546 61.9029 46.0254 68.2107 44.7526C68.6605 44.6614 69.044 44.2344 69.4585 43.9649C68.9673 43.8654 68.4511 43.6146 67.9909 43.6913C65.9761 44.0251 63.9778 44.4521 61.9754 44.8501C57.4669 45.7456 52.9583 46.6307 48.456 47.5614C47.9668 47.663 47.5356 48.0382 47.0775 48.2869V48.2849ZM24.2156 58.7613C24.1948 58.9312 24.1741 59.1012 24.1534 59.2712C25.1981 59.4909 26.2325 59.8081 27.2876 59.8993C28.1955 59.976 29.1242 59.777 30.0466 59.7293C32.9196 59.5801 35.803 59.5324 38.6657 59.2733C40.1789 59.1365 41.659 58.6431 43.1535 58.3094C43.1369 58.1788 43.1204 58.0461 43.1038 57.9155C36.8084 58.1974 30.5109 58.4814 24.2156 58.7633V58.7613ZM50.7693 57.1154C52.2432 57.1154 53.6134 57.3932 54.8177 57.0615C58.1364 56.1473 61.3867 54.9845 64.6619 53.9086C65.6154 53.5956 65.8579 53.2702 66.0404 52.1653C60.9929 53.8008 55.9536 55.4343 50.7693 57.1133V57.1154ZM53.2817 65.523C47.291 67.1399 41.2402 68.7713 35.1397 70.4172C39.8099 70.9685 50.1019 68.1639 53.2817 65.523ZM52.7718 51.9124L52.7883 52.2482C54.3223 52.2482 55.8852 52.441 57.3839 52.2068C60.4104 51.7321 63.3912 50.9713 66.4114 50.451C67.3546 50.2893 67.4831 49.767 67.6904 48.915C62.6221 49.9328 57.697 50.9237 52.7718 51.9124ZM57.4814 41.2557C53.8289 40.5965 53.5574 40.8183 53.603 44.2966C53.6051 44.5039 53.5823 44.7174 53.632 44.9123C53.6693 45.0615 53.8227 45.3185 53.8849 45.3061C55.0271 45.1092 56.1672 44.8915 57.299 44.6345C57.3964 44.6117 57.471 44.278 57.4752 44.0872C57.4938 43.1607 57.4834 42.232 57.4834 41.2536L57.4814 41.2557ZM1.95683 43.5379C2.22423 44.4542 2.47298 45.4719 2.8233 46.4524C3.13216 47.3106 3.72086 47.8724 4.72829 47.9283C5.3315 47.9615 5.92435 48.1833 6.52756 48.2869C7.13284 48.3885 7.74642 48.4507 8.35585 48.5253C8.91968 48.5937 9.48351 48.658 9.88357 48.7036C7.30697 47.0245 4.6661 45.304 1.95683 43.5379ZM16.409 53.5935L16.4173 53.4028C12.7815 53.0774 9.14355 52.7519 5.50769 52.4265L5.35223 52.6359C5.75851 52.9883 6.12334 53.5687 6.57938 53.6537C7.9848 53.9128 9.42546 54.1201 10.8475 54.091C12.7027 54.0537 14.5538 53.7718 16.407 53.5956L16.409 53.5935ZM61.0695 41.1168C61.0695 41.9252 60.9949 42.6134 61.1069 43.2726C61.1504 43.5359 61.6147 43.9339 61.8635 43.9173C62.6657 43.8613 63.4679 43.6747 64.2535 43.4757C65.205 43.2353 64.9314 42.4331 64.9417 41.7863C64.9542 41.0546 64.409 41.1189 63.926 41.1189C63.0367 41.1168 62.1475 41.1189 61.0716 41.1189L61.0695 41.1168ZM64.8008 54.4351C62.0148 55.341 59.3656 56.2033 56.7165 57.0656C58.1012 57.2315 59.4486 57.3289 60.7773 57.2087C62.5247 57.0511 64.0504 56.4127 64.8008 54.4372V54.4351ZM22.1199 62.4738C19.3007 60.5232 16.6163 62.2956 13.7226 62.2852C13.9195 62.5567 13.9838 62.6666 14.0667 62.7599C14.8191 63.589 15.7188 63.1247 16.5728 63.0397C18.4218 62.8552 20.2708 62.6645 22.1199 62.4759V62.4738ZM58.2214 41.179V44.6511C59.0236 44.3173 60.1015 44.8128 60.3544 43.6727C60.5265 42.8974 60.3876 42.0517 60.3876 41.1769H58.2214V41.179ZM12.17 60.8383C12.1347 60.9399 12.0974 61.0394 12.0622 61.141C12.5141 61.4084 12.9929 61.9432 13.4116 61.8976C15.1176 61.7151 16.805 61.3545 18.6996 61.0228C16.409 59.3023 14.2781 60.7347 12.1679 60.8362L12.17 60.8383ZM15.0513 54.5947C12.6716 55.0881 10.321 55.5732 7.97236 56.0582C7.95578 56.2075 7.94127 56.3588 7.92469 56.508C8.27293 56.6739 8.69581 57.0594 8.95906 56.9703C11.0133 56.2842 13.4842 56.6967 15.0492 54.5947H15.0513ZM43.3546 48.7782C43.2779 48.6704 43.2033 48.5647 43.1266 48.4569C41.4392 48.6435 39.7478 48.7989 38.0708 49.0415C37.7723 49.085 37.5235 49.4892 37.2541 49.7255C37.5546 49.8768 37.8718 50.1836 38.1537 50.1546C39.4721 50.0199 40.7925 49.8437 42.0881 49.568C42.5462 49.4706 42.9359 49.0498 43.3567 48.7782H43.3546ZM10.5034 59.1738L10.3811 59.6236C11.0009 59.862 11.631 60.3222 12.2363 60.2911C13.393 60.231 14.5372 59.891 15.7499 59.6547C14.0708 57.6689 12.2446 59.0307 10.5034 59.1717V59.1738ZM13.1795 56.5972C11.7741 56.8977 10.3852 57.1942 8.9943 57.4927C8.9715 57.6004 8.9487 57.7062 8.92382 57.814C9.37986 58.1021 9.85248 58.6514 10.2899 58.6245C11.3864 58.556 12.4664 58.2265 13.5899 57.9943C13.4469 57.5113 13.3329 57.1278 13.1774 56.5972H13.1795ZM43.0768 51.4419C43.1494 51.332 43.224 51.2201 43.2966 51.1102C43.0063 50.7599 42.6871 50.0862 42.428 50.109C40.7863 50.2479 39.157 50.5402 37.5256 50.7827C37.5194 50.8946 37.5132 51.0045 37.507 51.1164C39.3104 51.8046 41.2299 51.2367 43.0768 51.444V51.4419ZM58.9365 52.4203C61.48 53.2266 63.5487 51.8337 65.7626 51.077C63.4865 51.5248 61.2126 51.9725 58.9365 52.4203ZM68.7621 24.9358L68.6004 24.9752C68.5257 25.2674 68.447 25.5597 68.3807 25.852C67.9142 27.8648 68.1257 28.3664 69.7944 28.8681C69.4358 27.4979 69.0999 26.2168 68.7641 24.9358H68.7621ZM35.488 59.92C33.5954 60.032 31.7008 60.1439 29.8082 60.2558C31.7754 61.1928 33.6244 60.4548 35.488 59.92ZM6.46952 54.1304C7.23027 55.3617 7.82726 55.4135 9.84419 54.5409C8.6502 54.3957 7.65936 54.2755 6.46952 54.1304ZM36.6529 51.3714V46.5955C36.0207 47.5614 36 49.6157 36.6529 51.3714Z" fill="#AB8E5C"/>
<path d="M11.8801 20.9619C11.7848 14.6354 17.2469 8.86446 24.0708 9.10284C30.4595 9.32671 35.7557 14.2333 35.7454 21.0904C35.735 27.79 30.5362 32.9971 23.7019 32.9867C17.1391 32.9764 11.8967 27.8439 11.8822 20.9619H11.8801ZM23.8905 9.59826C17.5101 9.5568 12.4398 14.7826 12.3673 20.8437C12.2885 27.3796 17.5599 32.5659 23.7205 32.4892C30.4242 32.4042 35.1463 27.5143 35.2417 21.109C35.337 14.766 30.2667 9.70191 23.8905 9.60033V9.59826Z" fill="#AB8E5C"/>
<path d="M35.9023 39.7715H39.505L39.5113 39.9767H35.9065C35.9065 39.9083 35.9023 39.8399 35.9023 39.7715Z" fill="#AB8E5C"/>
<path d="M59.3822 34.2178C61.1421 34.2178 62.9019 34.2365 64.6598 34.2074C65.3708 34.195 65.6589 34.4603 65.6361 35.1776C65.6009 36.3156 65.6091 37.4557 65.6299 38.5937C65.6402 39.2114 65.377 39.4581 64.7634 39.456C61.1068 39.4456 57.4502 39.4457 53.7937 39.4581C53.1801 39.4602 52.9147 39.2135 52.9251 38.5958C52.9438 37.4577 52.9541 36.3177 52.921 35.1796C52.9002 34.4624 53.1884 34.1992 53.8973 34.2095C55.7256 34.2385 57.5539 34.2199 59.3822 34.2199V34.2157V34.2178ZM55.5639 34.8936C53.3832 34.9102 53.605 34.6324 53.6071 36.8898C53.6092 38.9751 53.4039 38.7761 55.4748 38.7761C57.7156 38.7761 57.4875 39.0103 57.4855 36.8276C57.4855 34.6821 57.7093 34.906 55.5639 34.8936ZM63.0636 38.7782C65.1676 38.7699 64.9396 38.973 64.952 36.9146C64.952 36.8794 64.952 36.8462 64.952 36.811C64.9417 34.6759 65.1676 34.8977 63.0097 34.8956C60.8332 34.8956 61.0716 34.6863 61.0716 36.8089C61.0716 39.0124 60.8249 38.7595 63.0616 38.7782H63.0636ZM60.3917 36.8587C60.3917 36.5851 60.3626 36.3073 60.3979 36.0378C60.5181 35.1237 60.1201 34.848 59.2288 34.8666C58.4369 34.8832 58.0866 35.1154 58.1592 35.9362C58.2068 36.4793 58.2048 37.0349 58.1592 37.58C58.0845 38.4279 58.3291 38.8093 59.2827 38.8093C60.2383 38.8093 60.4974 38.4258 60.3979 37.578C60.3709 37.3417 60.3937 37.0991 60.3937 36.8587H60.3917Z" fill="#AB8E5C"/>
<path d="M63.8924 33.3621H54.5312C55.0101 32.8999 55.2402 32.5931 55.5428 32.4003C56.5544 31.7619 57.5763 31.1379 58.6273 30.5679C58.9133 30.4124 59.4005 30.3171 59.6513 30.4559C60.9676 31.1815 62.2383 31.9878 63.5152 32.7817C63.6333 32.8543 63.6852 33.0346 63.8904 33.3621H63.8924ZM61.8714 32.7631C59.2885 30.8456 59.0688 30.8477 56.8612 32.6781C56.969 32.7113 57.054 32.7589 57.141 32.7589C58.6459 32.7631 60.1509 32.7631 61.8714 32.7631Z" fill="#AB8E5C"/>
<path d="M23.7678 25.5642C20.9197 25.7279 19.222 23.4498 19.1494 21.0121C19.0727 18.4666 21.2741 16.3357 23.888 16.3958C26.1786 16.4476 28.4443 18.081 28.409 21.0909C28.3759 24.0116 26.1786 25.7984 23.7678 25.5642Z" fill="#AB8E5C"/>
</svg>
