<svg width="35" height="31" viewBox="0 0 35 31" fill="none" xmlns="http://www.w3.org/2000/svg">
<path d="M34.9094 4.52643C34.8132 4.29862 34.6515 4.10425 34.4445 3.96782C34.2376 3.83139 33.9947 3.75899 33.7465 3.75977H28.9693C28.396 2.76392 27.6002 1.91282 26.6435 1.27238C25.6868 0.631941 24.5948 0.219348 23.4522 0.0665568C22.3097 -0.0862347 21.1471 0.0248749 20.0545 0.391282C18.962 0.757688 17.9688 1.36956 17.152 2.1795C16.4368 2.87383 15.8681 3.70349 15.4795 4.61972C15.0909 5.53595 14.8902 6.52027 14.8891 7.51484V8.46926C8.49327 6.81077 3.26033 1.67883 3.21319 1.61624C3.04881 1.45523 2.84312 1.34233 2.61862 1.2899C2.39412 1.23746 2.15946 1.24752 1.94031 1.31897C1.72187 1.38818 1.52625 1.51485 1.37412 1.6856C1.22199 1.85635 1.11899 2.06483 1.07602 2.28903C-0.291147 9.83048 1.98746 14.8842 4.14035 17.7944C5.22017 19.2659 6.53075 20.555 8.02183 21.612C5.61751 24.3188 1.90889 25.727 1.87746 25.7426C1.70011 25.8081 1.53989 25.9126 1.40874 26.0483C1.27758 26.184 1.17887 26.3474 1.11997 26.5264C1.06106 26.7053 1.04347 26.8952 1.06851 27.0819C1.09355 27.2686 1.16058 27.4472 1.26459 27.6045C1.39031 27.7923 1.86174 28.4025 3.0089 28.9814C4.43892 29.6854 6.32467 30.0453 8.60327 30.0453C19.682 30.0453 28.9536 21.5494 29.8964 10.6128L34.6422 5.90329C34.8128 5.72231 34.9284 5.49696 34.9757 5.2533C35.0229 5.00964 34.9999 4.75763 34.9094 4.52643ZM27.7907 9.17334C27.5717 9.3896 27.4426 9.68012 27.4293 9.98694C26.785 19.8284 18.5191 27.5419 8.60327 27.5419C6.93753 27.5419 5.77466 27.3229 4.9575 27.0569C6.76467 26.0868 9.27899 24.397 10.9133 21.9719C11.0082 21.8251 11.0712 21.6602 11.0982 21.4878C11.1253 21.3153 11.1158 21.1391 11.0704 20.9705C11.0247 20.8002 10.9438 20.6413 10.8328 20.5039C10.7219 20.3665 10.5834 20.2537 10.4262 20.1726C10.4104 20.1569 8.08469 18.9522 6.08895 16.2141C3.82606 13.1162 2.86747 9.34545 3.24462 4.99581C5.72751 7.02981 10.4733 10.3468 15.9419 11.2543C16.1225 11.2832 16.3072 11.2729 16.4835 11.2243C16.6598 11.1757 16.8235 11.0899 16.9634 10.9726C17.1002 10.8535 17.2101 10.7068 17.286 10.5423C17.3618 10.3778 17.4018 10.1992 17.4034 10.0182V7.51484C17.4057 6.36641 17.8045 5.25369 18.5329 4.36322C19.2614 3.47276 20.2751 2.85868 21.4042 2.62394C22.5333 2.3892 23.7091 2.54806 24.7345 3.07391C25.76 3.59975 26.5727 4.4606 27.0364 5.51214C27.1366 5.73581 27.2998 5.92578 27.5062 6.05906C27.7125 6.19235 27.9533 6.26323 28.1993 6.26315H30.7136L27.7907 9.17334Z" fill="#AB8E5C"/>
</svg>
